<svg fill="none" xmlns="http://www.w3.org/2000/svg"><path fill-rule="evenodd" clip-rule="evenodd" d="M20.571 0c.947 0 1.715.768 1.715 1.714v8.572c0 .947.767 1.714 1.714 1.714h5.143c.947 0 1.714-.768 1.714-1.714V8.57a1.714 1.714 0 1 1 3.429 0v1.715a5.143 5.143 0 0 1-5.143 5.143H24a5.143 5.143 0 0 1-5.143-5.143V1.714c0-.946.768-1.714 1.714-1.714ZM24 18.857c0-.947.767-1.714 1.714-1.714h5.143c.947 0 1.714.767 1.714 1.714v1.714a1.714 1.714 0 1 1-3.428 0h-3.429A1.714 1.714 0 0 1 24 18.857ZM15.429 0c.946 0 1.714.768 1.714 1.714V13.69c0 3.787-3.07 6.881-6.858 6.881-3.787 0-6.856-3.094-6.856-6.881V10.26a1.714 1.714 0 1 1 3.428 0v3.429c0 1.893 1.534 3.453 3.428 3.453s3.43-1.56 3.43-3.453V1.714c0-.946.767-1.714 1.714-1.714ZM69.745 16.63c.287-.343.54-.942.54-1.844V8.57a1.714 1.714 0 1 1 3.43 0v6.215c0 1.526-.433 2.962-1.345 4.049-.935 1.112-2.277 1.736-3.799 1.736a1.714 1.714 0 0 1 0-3.428c.536 0 .908-.197 1.174-.514ZM76.602 16.63c.287-.343.54-.942.54-1.844V8.57a1.714 1.714 0 1 1 3.43 0v6.215c0 1.526-.433 2.962-1.345 4.049-.934 1.112-2.277 1.736-3.798 1.736a1.714 1.714 0 1 1 0-3.428c.535 0 .907-.197 1.173-.514ZM78.857 5.143c.945 0 1.714-.77 1.714-1.715 0-.945-.769-1.714-1.714-1.714s-1.714.77-1.714 1.714c0 .946.769 1.715 1.714 1.715ZM56.571 18.857c0-.947.768-1.714 1.715-1.714h5.143a1.714 1.714 0 1 1 0 3.428h-5.143a1.714 1.714 0 0 1-1.715-1.714ZM48 6.857c.947 0 1.714.768 1.714 1.714v1.886c0 .833.65 1.543 1.715 1.543h10.285c1.065 0 1.715-.71 1.715-1.543V8.571a1.714 1.714 0 1 1 3.428 0v1.886c0 2.954-2.42 4.972-5.143 4.972H51.43c-2.723 0-5.143-2.018-5.143-4.972V8.571c0-.946.767-1.714 1.714-1.714ZM42.857 5.143c.945 0 1.714-.77 1.714-1.715 0-.945-.769-1.714-1.714-1.714s-1.714.77-1.714 1.714c0 .946.769 1.715 1.714 1.715Z" fill="#2E2E38"/><path fill-rule="evenodd" clip-rule="evenodd" d="M37.714 6.857c.947 0 1.715.768 1.715 1.714v5.143a3.429 3.429 0 0 0 6.857 0V8.571a1.714 1.714 0 1 1 3.428 0v5.143a6.857 6.857 0 1 1-13.714 0V8.571c0-.946.767-1.714 1.714-1.714Z" fill="#2E2E38"/><path d="M95.17 4.183a1.208 1.208 0 0 1 1.122-.754h7.755c.855 0 1.44.857 1.123 1.645l-5.94 14.743a1.208 1.208 0 0 1-1.122.754h-7.755a1.2 1.2 0 0 1-1.122-1.645L95.17 4.183Z" fill="url(#a)"/><path d="M91.886 13.714a5.143 5.143 0 1 0 0-10.285 5.143 5.143 0 0 0 0 10.285Z" fill="#0A33FF"/><path d="M97.029 8.571a5.143 5.143 0 0 1-5.688 5.115l3.698-9.178a5.134 5.134 0 0 1 1.99 4.063Z" fill="url(#b)"/><defs><linearGradient id="a" x1="100.395" y1="3.429" x2="94.334" y2="20.592" gradientUnits="userSpaceOnUse"><stop stop-color="#FFD60A"/><stop offset="1" stop-color="#F0BA09"/></linearGradient><linearGradient id="b" x1="95.001" y1="4.514" x2="91.328" y2="13.669" gradientUnits="userSpaceOnUse"><stop stop-color="#051A80"/><stop offset="1" stop-color="#0A33FF"/></linearGradient></defs></svg>