<svg width="124" height="24" viewBox="0 0 124 24" fill="none" xmlns="http://www.w3.org/2000/svg">
<path d="M11.1697 4.18292C11.3532 3.72733 11.7976 3.42859 12.2918 3.42859H20.0474C20.9024 3.42859 21.4871 4.28602 21.1695 5.07426L15.2304 19.8171C15.0469 20.2727 14.6025 20.5714 14.1083 20.5714H6.35262C5.49762 20.5714 4.91297 19.714 5.23051 18.9258L11.1697 4.18292Z" fill="url(#paint0_linear_179:688)"/>
<path d="M7.88572 13.7143C10.726 13.7143 13.0286 11.4118 13.0286 8.57145C13.0286 5.73112 10.726 3.42859 7.88572 3.42859C5.04539 3.42859 2.74286 5.73112 2.74286 8.57145C2.74286 11.4118 5.04539 13.7143 7.88572 13.7143Z" fill="#0A33FF"/>
<path d="M13.0286 8.57145C13.0286 11.4118 10.726 13.7143 7.8857 13.7143C7.70184 13.7143 7.52024 13.7047 7.34137 13.6858L11.0386 4.50812C12.2495 5.44903 13.0286 6.91925 13.0286 8.57145Z" fill="url(#paint1_linear_179:688)"/>
<path fill-rule="evenodd" clip-rule="evenodd" d="M118.783 3.42858C119.743 3.42858 120.522 4.19609 120.522 5.14287V18.8572C120.522 19.8039 119.743 20.5714 118.783 20.5714C117.822 20.5714 117.043 19.8039 117.043 18.8572V5.14287C117.043 4.19609 117.822 3.42858 118.783 3.42858Z" fill="white"/>
<path fill-rule="evenodd" clip-rule="evenodd" d="M108.348 6.85715C104.506 6.85715 101.391 9.92718 101.391 13.7143C101.391 17.5014 104.506 20.5714 108.348 20.5714C109.679 20.5714 110.923 20.2029 111.98 19.5636C112.253 20.1579 112.86 20.5714 113.565 20.5714C114.526 20.5714 115.304 19.8039 115.304 18.8572V8.57144C115.304 7.62466 114.526 6.85715 113.565 6.85715C112.86 6.85715 112.253 7.27064 111.98 7.86501C110.923 7.22573 109.679 6.85715 108.348 6.85715ZM111.826 13.7143C111.826 11.8207 110.269 10.2857 108.348 10.2857C106.427 10.2857 104.87 11.8207 104.87 13.7143C104.87 15.6078 106.427 17.1429 108.348 17.1429C110.269 17.1429 111.826 15.6078 111.826 13.7143Z" fill="white"/>
<path fill-rule="evenodd" clip-rule="evenodd" d="M88.3478 13.713C88.3478 13.7134 88.3478 13.7139 88.3478 13.7143C88.3478 13.7147 88.3478 13.7152 88.3478 13.7156V18.8572C88.3478 19.8039 89.1264 20.5714 90.0869 20.5714C91.0474 20.5714 91.826 19.8039 91.826 18.8572V15.4286H94.4347C97.7965 15.4286 100.522 12.7423 100.522 9.42858C100.522 6.11487 97.7965 3.42858 94.4347 3.42858H90.0869C89.1264 3.42858 88.3478 4.19609 88.3478 5.14287C88.3478 5.14328 88.3478 5.1437 88.3478 5.14412V13.713ZM91.826 12H94.4347C95.8755 12 97.0434 10.8487 97.0434 9.42858C97.0434 8.00842 95.8755 6.85715 94.4347 6.85715L91.826 6.85715V12Z" fill="white"/>
<path fill-rule="evenodd" clip-rule="evenodd" d="M84.8695 20.5714C83.909 20.5714 83.1304 19.8039 83.1304 18.8572V13.7143C83.1304 11.8207 81.5731 10.2857 79.6521 10.2857C77.7311 10.2857 76.1739 11.8207 76.1739 13.7143V18.8572C76.1739 19.8039 75.3952 20.5714 74.4347 20.5714C73.4742 20.5714 72.6956 19.8039 72.6956 18.8572V13.7143C72.6956 9.9272 75.8102 6.85715 79.6521 6.85715C83.4941 6.85715 86.6087 9.9272 86.6087 13.7143V18.8572C86.6087 19.8039 85.83 20.5714 84.8695 20.5714Z" fill="white"/>
<path d="M70.9565 3.42858C70.9565 4.37535 70.1778 5.14287 69.2174 5.14287C68.2569 5.14287 67.4782 4.37535 67.4782 3.42858C67.4782 2.48181 68.2569 1.71429 69.2174 1.71429C70.1778 1.71429 70.9565 2.48181 70.9565 3.42858Z" fill="white"/>
<path d="M70.9565 8.57144C70.9565 7.62466 70.1778 6.85715 69.2174 6.85715C68.2569 6.85715 67.4782 7.62466 67.4782 8.57144L67.4782 18.8572C67.4782 19.8039 68.2569 20.5714 69.2174 20.5714C70.1778 20.5714 70.9565 19.8039 70.9565 18.8572L70.9565 8.57144Z" fill="white"/>
<path fill-rule="evenodd" clip-rule="evenodd" d="M61.4126 10.9911C60.8309 11.4888 60.5217 12.0705 60.5217 12.6429V18.8572C60.5217 19.8039 59.7431 20.5714 58.7826 20.5714C57.8221 20.5714 57.0434 19.8039 57.0434 18.8572V12.6429C57.0434 10.7867 58.0447 9.33266 59.1326 8.40182C60.1782 7.50725 61.5817 6.85715 62.8405 6.85715H64C64.9605 6.85715 65.7391 7.62466 65.7391 8.57144C65.7391 9.51821 64.9605 10.2857 64 10.2857H62.8405C62.6622 10.2857 62.0367 10.4571 61.4126 10.9911Z" fill="white"/>
<path fill-rule="evenodd" clip-rule="evenodd" d="M48.3478 6.85715C44.5058 6.85715 41.3913 9.92718 41.3913 13.7143C41.3913 17.5014 44.5058 20.5714 48.3478 20.5714C49.679 20.5714 50.9229 20.2029 51.9801 19.5636C52.2532 20.1579 52.8602 20.5714 53.5652 20.5714C54.5257 20.5714 55.3043 19.8039 55.3043 18.8572V8.57144C55.3043 7.62466 54.5257 6.85715 53.5652 6.85715C52.8602 6.85715 52.2532 7.27064 51.9801 7.86501C50.9229 7.22573 49.679 6.85715 48.3478 6.85715ZM51.826 13.7143C51.826 11.8207 50.2687 10.2857 48.3478 10.2857C46.4268 10.2857 44.8695 11.8207 44.8695 13.7143C44.8695 15.6078 46.4268 17.1429 48.3478 17.1429C50.2687 17.1429 51.826 15.6078 51.826 13.7143Z" fill="white"/>
<path fill-rule="evenodd" clip-rule="evenodd" d="M27.4782 5.14287C27.4782 4.19609 28.2569 3.42858 29.2174 3.42858H39.6521C40.3109 3.42858 40.9131 3.79544 41.2077 4.37621C41.5023 4.95699 41.4387 5.65198 41.0434 6.17144L32.6956 17.1429H39.6521C40.6126 17.1429 41.3913 17.9104 41.3913 18.8572C41.3913 19.8039 40.6126 20.5714 39.6521 20.5714H29.2174C28.5586 20.5714 27.9564 20.2046 27.6618 19.6238C27.3672 19.043 27.4308 18.348 27.826 17.8286L36.1739 6.85715H29.2174C28.2569 6.85715 27.4782 6.08964 27.4782 5.14287Z" fill="white"/>
<defs>
<linearGradient id="paint0_linear_179:688" x1="16.3948" y1="3.42859" x2="10.3342" y2="20.5923" gradientUnits="userSpaceOnUse">
<stop stop-color="#FFD60A"/>
<stop offset="1" stop-color="#F0BA09"/>
</linearGradient>
<linearGradient id="paint1_linear_179:688" x1="11.0011" y1="4.51445" x2="7.32803" y2="13.6694" gradientUnits="userSpaceOnUse">
<stop stop-color="#051A80"/>
<stop offset="1" stop-color="#0A33FF"/>
</linearGradient>
</defs>
</svg>
