<svg fill="none" xmlns="http://www.w3.org/2000/svg"><path d="M11.17 4.183a1.209 1.209 0 0 1 1.122-.754h7.755a1.2 1.2 0 0 1 1.122 1.645L15.23 19.817a1.209 1.209 0 0 1-1.122.754H6.353a1.2 1.2 0 0 1-1.123-1.645l5.94-14.743Z" fill="url(#a)"/><path d="M7.886 13.714a5.143 5.143 0 1 0 0-10.285 5.143 5.143 0 0 0 0 10.285Z" fill="#0A33FF"/><path d="M13.029 8.571a5.143 5.143 0 0 1-5.688 5.115l3.698-9.178a5.134 5.134 0 0 1 1.99 4.063Z" fill="url(#b)"/><path fill-rule="evenodd" clip-rule="evenodd" d="M118.783 3.429c.96 0 1.739.767 1.739 1.714v13.714c0 .947-.779 1.714-1.739 1.714-.961 0-1.74-.767-1.74-1.714V5.143c0-.947.779-1.714 1.74-1.714ZM108.348 6.857c-3.842 0-6.957 3.07-6.957 6.857 0 3.787 3.115 6.857 6.957 6.857a6.997 6.997 0 0 0 3.632-1.007 1.74 1.74 0 0 0 1.585 1.007c.961 0 1.739-.767 1.739-1.714V8.571c0-.946-.778-1.714-1.739-1.714a1.74 1.74 0 0 0-1.585 1.008 6.998 6.998 0 0 0-3.632-1.008Zm3.478 6.857c0-1.893-1.557-3.428-3.478-3.428-1.921 0-3.478 1.535-3.478 3.428 0 1.894 1.557 3.429 3.478 3.429 1.921 0 3.478-1.535 3.478-3.429ZM88.348 13.713v5.144c0 .947.778 1.714 1.739 1.714.96 0 1.739-.767 1.739-1.714V15.43h2.609c3.361 0 6.087-2.687 6.087-6 0-3.314-2.726-6-6.087-6h-4.348c-.96 0-1.74.767-1.74 1.714v8.57ZM91.826 12h2.609c1.44 0 2.608-1.151 2.608-2.571 0-1.42-1.168-2.572-2.608-2.572h-2.609V12ZM84.87 20.571c-.961 0-1.74-.767-1.74-1.714v-5.143c0-1.893-1.557-3.428-3.478-3.428-1.92 0-3.478 1.535-3.478 3.428v5.143c0 .947-.779 1.714-1.74 1.714-.96 0-1.738-.767-1.738-1.714v-5.143c0-3.787 3.114-6.857 6.956-6.857 3.842 0 6.957 3.07 6.957 6.857v5.143c0 .947-.779 1.714-1.74 1.714Z" fill="#2E2E38"/><path d="M70.957 3.429c0 .946-.78 1.714-1.74 1.714s-1.739-.768-1.739-1.714c0-.947.779-1.715 1.74-1.715.96 0 1.739.768 1.739 1.715ZM70.957 8.571c0-.946-.78-1.714-1.74-1.714s-1.739.768-1.739 1.714v10.286c0 .947.779 1.714 1.74 1.714.96 0 1.739-.767 1.739-1.714V8.571Z" fill="#2E2E38"/><path fill-rule="evenodd" clip-rule="evenodd" d="M61.413 10.991c-.582.498-.891 1.08-.891 1.652v6.214c0 .947-.779 1.714-1.74 1.714-.96 0-1.739-.767-1.739-1.714v-6.214c0-1.856 1.002-3.31 2.09-4.241 1.045-.895 2.449-1.545 3.707-1.545H64c.96 0 1.74.768 1.74 1.714 0 .947-.78 1.715-1.74 1.715h-1.16c-.178 0-.803.171-1.427.705ZM48.348 6.857c-3.842 0-6.957 3.07-6.957 6.857 0 3.787 3.115 6.857 6.957 6.857a6.998 6.998 0 0 0 3.632-1.007c.273.594.88 1.007 1.585 1.007.96 0 1.74-.767 1.74-1.714V8.571c0-.946-.78-1.714-1.74-1.714a1.74 1.74 0 0 0-1.585 1.008 6.999 6.999 0 0 0-3.632-1.008Zm3.478 6.857c0-1.893-1.557-3.428-3.478-3.428-1.921 0-3.478 1.535-3.478 3.428 0 1.894 1.557 3.429 3.478 3.429 1.92 0 3.478-1.535 3.478-3.429Z" fill="#2E2E38"/><path fill-rule="evenodd" clip-rule="evenodd" d="M27.478 5.143c0-.947.779-1.714 1.74-1.714h10.434c.659 0 1.261.366 1.556.947.294.581.23 1.276-.165 1.795l-8.347 10.972h6.956c.96 0 1.74.767 1.74 1.714s-.78 1.714-1.74 1.714H29.217a1.742 1.742 0 0 1-1.555-.947 1.694 1.694 0 0 1 .164-1.795l8.348-10.972h-6.957c-.96 0-1.739-.767-1.739-1.714Z" fill="#2E2E38"/><defs><linearGradient id="a" x1="16.395" y1="3.429" x2="10.334" y2="20.592" gradientUnits="userSpaceOnUse"><stop stop-color="#FFD60A"/><stop offset="1" stop-color="#F0BA09"/></linearGradient><linearGradient id="b" x1="11.001" y1="4.514" x2="7.328" y2="13.669" gradientUnits="userSpaceOnUse"><stop stop-color="#051A80"/><stop offset="1" stop-color="#0A33FF"/></linearGradient></defs></svg>