<svg width="24" height="24" viewBox="0 0 24 24" fill="none" xmlns="http://www.w3.org/2000/svg">
<path d="M11.1696 4.1829C11.3532 3.72731 11.7975 3.42857 12.2917 3.42857H20.0474C20.9024 3.42857 21.487 4.28601 21.1695 5.07424L15.2304 19.8171C15.0468 20.2727 14.6024 20.5714 14.1083 20.5714H6.35259C5.49759 20.5714 4.91294 19.714 5.23048 18.9258L11.1696 4.1829Z" fill="url(#paint0_linear_179:648)"/>
<path d="M7.88572 13.7143C10.726 13.7143 13.0286 11.4118 13.0286 8.57143C13.0286 5.73111 10.726 3.42857 7.88572 3.42857C5.04539 3.42857 2.74286 5.73111 2.74286 8.57143C2.74286 11.4118 5.04539 13.7143 7.88572 13.7143Z" fill="#0A33FF"/>
<path d="M13.0286 8.57145C13.0286 11.4118 10.726 13.7143 7.8857 13.7143C7.70184 13.7143 7.52024 13.7047 7.34137 13.6858L11.0386 4.50812C12.2495 5.44903 13.0286 6.91925 13.0286 8.57145Z" fill="url(#paint1_linear_179:648)"/>
<defs>
<linearGradient id="paint0_linear_179:648" x1="16.3947" y1="3.42857" x2="10.3342" y2="20.5923" gradientUnits="userSpaceOnUse">
<stop stop-color="#FFD60A"/>
<stop offset="1" stop-color="#F0BA09"/>
</linearGradient>
<linearGradient id="paint1_linear_179:648" x1="11.0011" y1="4.51445" x2="7.32803" y2="13.6694" gradientUnits="userSpaceOnUse">
<stop stop-color="#051A80"/>
<stop offset="1" stop-color="#0A33FF"/>
</linearGradient>
</defs>
</svg>
