<svg width="100" height="24" viewBox="0 0 100 24" fill="none" xmlns="http://www.w3.org/2000/svg">
<path fill-rule="evenodd" clip-rule="evenodd" d="M94.7826 3.42858C95.7431 3.42858 96.5217 4.19609 96.5217 5.14287V18.8572C96.5217 19.8039 95.7431 20.5714 94.7826 20.5714C93.8221 20.5714 93.0434 19.8039 93.0434 18.8572V5.14287C93.0434 4.19609 93.8221 3.42858 94.7826 3.42858Z" fill="white"/>
<path fill-rule="evenodd" clip-rule="evenodd" d="M84.3478 6.85715C80.5058 6.85715 77.3913 9.92718 77.3913 13.7143C77.3913 17.5014 80.5058 20.5714 84.3478 20.5714C85.679 20.5714 86.9229 20.2029 87.9801 19.5636C88.2532 20.1579 88.8602 20.5714 89.5652 20.5714C90.5257 20.5714 91.3043 19.8039 91.3043 18.8572V8.57144C91.3043 7.62466 90.5257 6.85715 89.5652 6.85715C88.8602 6.85715 88.2532 7.27064 87.9801 7.86501C86.9229 7.22573 85.679 6.85715 84.3478 6.85715ZM87.826 13.7143C87.826 11.8207 86.2687 10.2857 84.3478 10.2857C82.4268 10.2857 80.8695 11.8207 80.8695 13.7143C80.8695 15.6078 82.4268 17.1429 84.3478 17.1429C86.2687 17.1429 87.826 15.6078 87.826 13.7143Z" fill="white"/>
<path fill-rule="evenodd" clip-rule="evenodd" d="M64.3478 13.713C64.3478 13.7134 64.3478 13.7139 64.3478 13.7143C64.3478 13.7147 64.3478 13.7152 64.3478 13.7156V18.8572C64.3478 19.8039 65.1264 20.5714 66.0869 20.5714C67.0474 20.5714 67.826 19.8039 67.826 18.8572V15.4286H70.4347C73.7965 15.4286 76.5217 12.7423 76.5217 9.42858C76.5217 6.11487 73.7965 3.42858 70.4347 3.42858H66.0869C65.1264 3.42858 64.3478 4.19609 64.3478 5.14287C64.3478 5.14328 64.3478 5.1437 64.3478 5.14412V13.713ZM67.826 12H70.4347C71.8755 12 73.0434 10.8487 73.0434 9.42858C73.0434 8.00842 71.8755 6.85715 70.4347 6.85715L67.826 6.85715V12Z" fill="white"/>
<path fill-rule="evenodd" clip-rule="evenodd" d="M60.8695 20.5714C59.909 20.5714 59.1304 19.8039 59.1304 18.8572V13.7143C59.1304 11.8207 57.5731 10.2857 55.6521 10.2857C53.7311 10.2857 52.1739 11.8207 52.1739 13.7143V18.8572C52.1739 19.8039 51.3952 20.5714 50.4347 20.5714C49.4742 20.5714 48.6956 19.8039 48.6956 18.8572V13.7143C48.6956 9.9272 51.8102 6.85715 55.6521 6.85715C59.4941 6.85715 62.6087 9.9272 62.6087 13.7143V18.8572C62.6087 19.8039 61.83 20.5714 60.8695 20.5714Z" fill="white"/>
<path d="M46.9565 3.42858C46.9565 4.37535 46.1778 5.14287 45.2174 5.14287C44.2569 5.14287 43.4782 4.37535 43.4782 3.42858C43.4782 2.48181 44.2569 1.71429 45.2174 1.71429C46.1778 1.71429 46.9565 2.48181 46.9565 3.42858Z" fill="white"/>
<path d="M46.9565 8.57144C46.9565 7.62466 46.1778 6.85715 45.2174 6.85715C44.2569 6.85715 43.4782 7.62466 43.4782 8.57144L43.4782 18.8572C43.4782 19.8039 44.2569 20.5714 45.2174 20.5714C46.1778 20.5714 46.9565 19.8039 46.9565 18.8572L46.9565 8.57144Z" fill="white"/>
<path fill-rule="evenodd" clip-rule="evenodd" d="M37.4126 10.9911C36.8309 11.4888 36.5217 12.0705 36.5217 12.6429V18.8572C36.5217 19.8039 35.7431 20.5714 34.7826 20.5714C33.8221 20.5714 33.0434 19.8039 33.0434 18.8572V12.6429C33.0434 10.7867 34.0447 9.33266 35.1326 8.40182C36.1782 7.50725 37.5817 6.85715 38.8405 6.85715H40C40.9605 6.85715 41.7391 7.62466 41.7391 8.57144C41.7391 9.51821 40.9605 10.2857 40 10.2857H38.8405C38.6622 10.2857 38.0367 10.4571 37.4126 10.9911Z" fill="white"/>
<path fill-rule="evenodd" clip-rule="evenodd" d="M24.3478 6.85715C20.5058 6.85715 17.3913 9.92718 17.3913 13.7143C17.3913 17.5014 20.5058 20.5714 24.3478 20.5714C25.679 20.5714 26.9229 20.2029 27.9801 19.5636C28.2532 20.1579 28.8602 20.5714 29.5652 20.5714C30.5257 20.5714 31.3043 19.8039 31.3043 18.8572V8.57144C31.3043 7.62466 30.5257 6.85715 29.5652 6.85715C28.8602 6.85715 28.2532 7.27064 27.9801 7.86501C26.9229 7.22573 25.679 6.85715 24.3478 6.85715ZM27.826 13.7143C27.826 11.8207 26.2687 10.2857 24.3478 10.2857C22.4268 10.2857 20.8695 11.8207 20.8695 13.7143C20.8695 15.6078 22.4268 17.1429 24.3478 17.1429C26.2687 17.1429 27.826 15.6078 27.826 13.7143Z" fill="white"/>
<path fill-rule="evenodd" clip-rule="evenodd" d="M3.47822 5.14287C3.47822 4.19609 4.25686 3.42858 5.21735 3.42858H15.6521C16.3109 3.42858 16.9131 3.79544 17.2077 4.37621C17.5023 4.95699 17.4387 5.65198 17.0434 6.17144L8.69561 17.1429H15.6521C16.6126 17.1429 17.3913 17.9104 17.3913 18.8572C17.3913 19.8039 16.6126 20.5714 15.6521 20.5714H5.21735C4.55862 20.5714 3.95642 20.2046 3.66183 19.6238C3.36723 19.043 3.43081 18.348 3.82605 17.8286L12.1739 6.85715H5.21735C4.25686 6.85715 3.47822 6.08964 3.47822 5.14287Z" fill="white"/>
</svg>
