<svg width="128" height="128" viewBox="0 0 128 128" fill="none" xmlns="http://www.w3.org/2000/svg">
<g clip-path="url(#clip0_1012_46454)">
<circle cx="64" cy="64" r="64" fill="#252525"/>
<mask id="mask0_1012_46454" style="mask-type:alpha" maskUnits="userSpaceOnUse" x="0" y="0" width="128" height="128">
<circle cx="64" cy="64" r="64" fill="#252525"/>
</mask>
<g mask="url(#mask0_1012_46454)">
<path d="M-47 13.3901L-24.7 -3.47992L-2.4 13.3901L19.9 -3.47992L42.2 13.3901L64.5 -3.47992L86.8 13.3901L109.1 -3.47992L131.4 13.3901L153.7 -3.47992L176 13.3901" stroke="#333333"/>
<path d="M-47 30.2601L-24.7 13.3901L-2.4 30.2601L19.9 13.3901L42.2 30.2601L64.5 13.3901L86.8 30.2601L109.1 13.3901L131.4 30.2601L153.7 13.3901L176 30.2601" stroke="#333333"/>
<path d="M-47 47.13L-24.7 30.2601L-2.4 47.13L19.9 30.2601L42.2 47.13L64.5 30.2601L86.8 47.13L109.1 30.2601L131.4 47.13L153.7 30.2601L176 47.13" stroke="#333333"/>
<path d="M-47 64L-24.7 47.13L-2.4 64L19.9 47.13L42.2 64L64.5 47.13L86.8 64L109.1 47.13L131.4 64L153.7 47.13L176 64" stroke="#333333"/>
<path d="M-47 80.87L-24.7 64L-2.4 80.87L19.9 64L42.2 80.87L64.5 64L86.8 80.87L109.1 64L131.4 80.87L153.7 64L176 80.87" stroke="#333333"/>
<path d="M-47 97.74L-24.7 80.87L-2.4 97.74L19.9 80.87L42.2 97.74L64.5 80.87L86.8 97.74L109.1 80.87L131.4 97.74L153.7 80.87L176 97.74" stroke="#333333"/>
<path d="M-47 114.61L-24.7 97.7399L-2.4 114.61L19.9 97.7399L42.2 114.61L64.5 97.7399L86.8 114.61L109.1 97.7399L131.4 114.61L153.7 97.7399L176 114.61" stroke="#333333"/>
<path d="M-47 131.48L-24.7 114.61L-2.4 131.48L19.9 114.61L42.2 131.48L64.5 114.61L86.8 131.48L109.1 114.61L131.4 131.48L153.7 114.61L176 131.48" stroke="#333333"/>
</g>
<path d="M23.9565 31.8301C23.9812 30.7943 24.7929 29.9487 25.8269 29.8819L73.871 26.7751C75.0239 26.7006 76 27.6156 76 28.771V102C76 103.105 75.1046 104 74 104H24.2882C23.165 104 22.262 103.075 22.2888 101.953L23.9565 31.8301Z" fill="#333333"/>
<path d="M28.4041 24.6621C28.7834 24.2406 29.3238 24 29.8907 24H71.76C72.8646 24 73.76 24.8954 73.76 26V99.3626C73.76 100.467 72.8646 101.363 71.76 101.363H22C20.8954 101.363 20 100.467 20 99.3626V34.7675C20 34.2734 20.1829 33.7968 20.5134 33.4295L28.4041 24.6621Z" fill="#19191A"/>
<path d="M101.517 86.4415L96.9259 91.3205L90.6752 85.3018L95.2822 80.4263L101.517 86.4415Z" fill="#405380"/>
<mask id="mask1_1012_46454" style="mask-type:alpha" maskUnits="userSpaceOnUse" x="44" y="34" width="58" height="57">
<path d="M73.3685 90.9162C88.8745 90.9162 101.297 78.302 101.114 62.7417C100.931 47.1814 88.2133 34.5673 72.7074 34.5673C57.2014 34.5673 44.7794 47.1814 44.962 62.7417C45.1445 78.302 57.8626 90.9162 73.3685 90.9162Z" fill="#252525"/>
</mask>
<g mask="url(#mask1_1012_46454)">
<rect x="40" y="32.9999" width="66" height="60" fill="#2E2E2E"/>
<path d="M-52 47.2573L-30.3 30.8412L-8.59997 47.2573L13.1 30.8412L34.8 47.2573L56.5 30.8412L78.2 47.2573L99.9 30.8412L121.6 47.2573L143.3 30.8412L165 47.2573" stroke="#333333"/>
<path d="M-52 63.6732L-30.3 47.2571L-8.59997 63.6732L13.1 47.2571L34.8 63.6732L56.5 47.2571L78.2 63.6732L99.9 47.2571L121.6 63.6732L143.3 47.2571L165 63.6732" stroke="#333333"/>
<path d="M-52 80.0894L-30.3 63.6733L-8.59997 80.0894L13.1 63.6733L34.8 80.0894L56.5 63.6733L78.2 80.0894L99.9 63.6733L121.6 80.0894L143.3 63.6733L165 80.0894" stroke="#333333"/>
<path d="M-52 96.5054L-30.3 80.0893L-8.59997 96.5054L13.1 80.0893L34.8 96.5054L56.5 80.0893L78.2 96.5054L99.9 80.0893L121.6 96.5054L143.3 80.0893L165 96.5054" stroke="#333333"/>
<rect x="22.6" y="17.6488" width="62.4" height="89.7959" rx="2" fill="#333333"/>
<rect x="20" y="14.5874" width="62.4" height="89.7959" rx="2" fill="#19191A"/>
</g>
<path d="M123.38 110.774L121.381 112.908C120.058 114.31 117.878 114.368 116.514 113.017L96.0614 92.8567C95.8361 92.6349 95.8267 92.2705 96.0433 92.0418L102.025 85.6371C102.241 85.4084 102.599 85.4003 102.824 85.6221L123.276 105.782C124.657 107.137 124.703 109.373 123.38 110.774Z" fill="#90AEF4"/>
<path d="M98.3548 78.8126C89.902 92.8783 71.6445 97.2198 57.6482 88.5015C43.6695 79.7832 39.1608 61.2524 47.6136 47.1867C56.0663 33.121 74.3238 28.7795 88.3201 37.4978C102.316 46.216 106.808 64.7645 98.3548 78.8126ZM49.9167 48.6162C42.2405 61.4113 46.3424 78.2478 59.0631 86.1719C71.7838 94.096 88.375 90.1428 96.0514 77.3654C103.728 64.588 99.6259 47.7515 86.9229 39.8273C74.202 31.8856 57.6107 35.8388 49.9167 48.6162Z" fill="#90AEF4"/>
</g>
<defs>
<clipPath id="clip0_1012_46454">
<rect width="128" height="128" fill="white"/>
</clipPath>
</defs>
</svg>
