<svg width="128" height="128" viewBox="0 0 128 128" fill="none" xmlns="http://www.w3.org/2000/svg">
<rect width="128" height="128" rx="64" fill="#343536" fill-opacity="0.6"/>
<path d="M40.5028 31C40.3718 31.0002 40.2474 31.0457 40.1189 31.0601C38.346 31.261 36.8042 32.8068 35.8879 35.074C35.8254 35.2296 35.776 35.4006 35.72 35.5625C35.4369 36.3697 35.2186 37.2449 35.1042 38.1859C35.0371 38.74 35 39.3134 35 39.8993V96.7843L38.4368 94.7843L41.8736 96.7843L45.3104 94.7843L48.7471 96.7843L52.1839 94.7843L55.6207 96.7843L59.4886 94.7843L62.4943 96.7843L65.9311 94.7843L69.3679 96.7843L72.8046 94.7843L76.2414 96.7843L79.6782 94.7843L83.115 96.7843L86.5518 94.7843L89.9886 96.7843L90.284 41.102V40.8766V39.8993C90.284 39.2851 90.3224 38.6823 90.3966 38.1031C90.4632 37.5737 90.563 37.0602 90.6833 36.5698C90.6859 36.5599 90.691 36.5493 90.691 36.5397C90.7268 36.4062 90.7703 36.2821 90.8113 36.1563C90.8266 36.1075 90.8446 36.0618 90.8599 36.0135C90.9572 35.6952 91.0544 35.3845 91.1722 35.0889C91.2361 34.9289 91.3104 34.7832 91.3795 34.6305C91.5151 34.3339 91.6559 34.0479 91.812 33.7812C91.8146 33.778 91.8171 33.7766 91.8197 33.7737C91.8914 33.6546 91.9605 33.5404 92.0373 33.4278C92.1883 33.1955 92.347 32.9769 92.5159 32.7741C92.521 32.7671 92.5261 32.7582 92.5312 32.7515C92.5927 32.6786 92.6618 32.6166 92.7232 32.5485C92.7795 32.4869 92.8332 32.4188 92.8921 32.3606C93.038 32.2142 93.1864 32.0867 93.34 31.9621C93.3503 31.9532 93.3605 31.9412 93.3707 31.9323C93.491 31.8365 93.6139 31.7442 93.7393 31.6614C93.7495 31.6557 93.7547 31.6448 93.7623 31.6391C93.9773 31.5022 94.2025 31.4014 94.4278 31.3083C94.4303 31.3069 94.4329 31.3021 94.4355 31.3007C94.4534 31.2932 94.4739 31.2867 94.4918 31.2783C94.5711 31.2465 94.6505 31.1987 94.7324 31.1729C95.0728 31.0654 95.426 31.0002 95.7869 31H90.284H52.3964H40.5028Z" fill="#19191A"/>
<rect x="40.9493" y="70.1372" width="43.2941" height="3.60784" rx="1.80392" fill="#2E2E2E"/>
<rect x="61.6945" y="78.2549" width="22.549" height="3.60784" rx="1.80392" fill="#2E2E2E"/>
<rect x="40.9493" y="62.0196" width="43.2941" height="3.60784" rx="1.80392" fill="#2E2E2E"/>
<rect x="40.9493" y="53.902" width="43.2941" height="3.60784" rx="1.80392" fill="#2E2E2E"/>
<rect x="53.5768" y="45.7843" width="18.0392" height="3.60784" rx="1.80392" fill="#2E2E2E"/>
</svg>
