<svg width="128" height="128" viewBox="0 0 128 128" fill="none" xmlns="http://www.w3.org/2000/svg">
<g clip-path="url(#clip0_1006_45314)">
<circle cx="64" cy="64" r="64" fill="#252525"/>
<mask id="mask0_1006_45314" style="mask-type:alpha" maskUnits="userSpaceOnUse" x="0" y="0" width="128" height="128">
<circle cx="64" cy="64" r="64" fill="#252525"/>
</mask>
<g mask="url(#mask0_1006_45314)">
<circle cx="64" cy="94" r="49.5" stroke="#333333"/>
<circle cx="64" cy="94" r="65.5" stroke="#333333"/>
<circle cx="64" cy="94" r="82.5" stroke="#333333"/>
<path fill-rule="evenodd" clip-rule="evenodd" d="M35.2369 69.0898C30.6768 69.0898 26.9801 72.8462 26.9801 77.4798V81.6748V83.7723V119.43C26.9801 124.063 30.6768 127.82 35.2369 127.82H97.163C99.4431 127.82 101.291 125.942 101.291 123.625V81.6748C101.291 79.358 99.5604 77.8993 97.2803 77.8993L97.2962 73.0052C97.2962 70.6883 95.3147 69.0898 93.0346 69.0898H35.2369Z" fill="#90AEF4"/>
<path d="M97.2803 77.8992V73.005H32.7997C31.651 73.005 30.7197 74.1006 30.7197 75.4521C30.7197 76.8036 31.651 77.8992 32.7997 77.8992H97.2803Z" fill="#405380"/>
<path d="M80.3824 103.699C80.3824 100.803 82.689 98.4548 85.5342 98.4548H103.05C104.188 98.4548 105.111 99.3939 105.111 100.552V106.845C105.111 108.003 104.188 108.942 103.05 108.942H85.5342C82.689 108.942 80.3824 106.595 80.3824 103.699Z" fill="#19191A"/>
<path d="M88.6254 103.699C88.6254 105.436 87.2415 106.845 85.5343 106.845C83.8272 106.845 82.4433 105.436 82.4433 103.699C82.4433 101.961 83.8272 100.552 85.5343 100.552C87.2415 100.552 88.6254 101.961 88.6254 103.699Z" fill="#405380"/>
<mask id="mask1_1006_45314" style="mask-type:alpha" maskUnits="userSpaceOnUse" x="15" y="27" width="98" height="51">
<rect x="15.0584" y="27" width="97.8833" height="50.8993" fill="#252525"/>
</mask>
<g mask="url(#mask1_1006_45314)">
<g opacity="0.4" filter="url(#filter0_f_1006_45314)">
<path d="M41.4868 72.0264C41.4868 60.1333 51.1281 50.492 63.0212 50.492C74.9143 50.492 84.5555 60.1333 84.5555 72.0263V93.5607H41.4868V72.0264Z" fill="#FFD60A"/>
</g>
<path d="M80.2855 69.4718C79.3587 77.0194 72.4889 82.3867 64.9413 81.46C57.3937 80.5332 52.0264 73.6634 52.9532 66.1158C53.8799 58.5682 60.7497 53.2009 68.2973 54.1277C75.8449 55.0544 81.2122 61.9242 80.2855 69.4718Z" fill="#FFD60A"/>
<path d="M67.9007 59.8325L61.1276 62.5397L60.9564 63.9342L73.6464 65.4923L73.8176 64.0978M70.1357 66.4768L69.5364 71.3576L71.5401 71.6036L72.1394 66.7228M59.7578 73.6957L72.4478 75.2539L72.7047 73.1621L60.0147 71.604M66.1283 65.9847L65.5291 70.8655L67.5327 71.1115L68.132 66.2308M62.121 65.4927L61.5217 70.3735L63.5254 70.6195L64.1247 65.7387L62.121 65.4927Z" fill="#F0BA09"/>
<path fill-rule="evenodd" clip-rule="evenodd" d="M67.9377 57.0561C62.0074 56.3279 56.6097 60.5451 55.8816 66.4753C55.1535 72.4056 59.3706 77.8033 65.3009 78.5314C71.2311 79.2596 76.6288 75.0424 77.357 69.1122C78.0851 63.1819 73.868 57.7842 67.9377 57.0561ZM53.9293 66.2356C54.7898 59.2271 61.1689 54.2432 68.1774 55.1037C75.1859 55.9643 80.1698 62.3434 79.3093 69.3519C78.4487 76.3604 72.0696 81.3443 65.0612 80.4837C58.0527 79.6232 53.0688 73.2441 53.9293 66.2356Z" fill="#F0BA09"/>
<path d="M94.7407 84.3583C93.697 91.7847 86.8307 96.9588 79.4043 95.9151C71.978 94.8714 66.8038 88.0051 67.8475 80.5787C68.8912 73.1524 75.7576 67.9783 83.1839 69.022C90.6102 70.0657 95.7844 76.932 94.7407 84.3583Z" fill="#FFD60A"/>
<path d="M82.6946 74.6404L75.9694 77.1932L75.7766 78.5653L88.2627 80.3201L88.4555 78.948M84.784 81.2304L84.1091 86.0328L86.0806 86.3098L86.7555 81.5075M74.4267 88.17L86.9128 89.9248L87.2021 87.8666L74.716 86.1118M80.8411 80.6763L80.1661 85.4786L82.1376 85.7557L82.8125 80.9533M76.8981 80.1221L76.2231 84.9245L78.1946 85.2015L78.8696 80.3992L76.8981 80.1221Z" fill="#F0BA09"/>
<path fill-rule="evenodd" clip-rule="evenodd" d="M82.7788 71.9031C76.9439 71.083 71.5489 75.1484 70.7288 80.9834C69.9088 86.8184 73.9742 92.2134 79.8092 93.0334C85.6441 93.8535 91.0391 89.7881 91.8592 83.9531C92.6792 78.1181 88.6138 72.7232 82.7788 71.9031ZM68.8079 80.7135C69.7771 73.8176 76.1529 69.013 83.0488 69.9822C89.9447 70.9513 94.7493 77.3272 93.7801 84.2231C92.811 91.1189 86.4351 95.9235 79.5392 94.9544C72.6433 93.9852 67.8388 87.6093 68.8079 80.7135Z" fill="#F0BA09"/>
<path d="M62.2103 72.7299C64.2686 79.9081 60.1181 87.3959 52.9398 89.4542C45.7616 91.5126 38.2738 87.362 36.2155 80.1838C34.1571 73.0055 38.3077 65.5177 45.4859 63.4594C52.6642 61.4011 60.152 65.5516 62.2103 72.7299Z" fill="#FFD60A"/>
<path d="M47.3164 68.7682L42.2326 73.8143L42.6129 75.1405L54.6819 71.6798L54.3016 70.3535M51.8862 73.9168L53.2172 78.5587L55.1229 78.0123L53.7918 73.3703M45.275 84.4244L57.344 80.9637L56.7736 78.9743L44.7046 82.435M48.0749 75.0096L49.406 79.6516L51.3116 79.1051L49.9805 74.4632M44.2636 76.1025L45.5947 80.7444L47.5003 80.198L46.1693 75.5561L44.2636 76.1025Z" fill="#F0BA09"/>
<path fill-rule="evenodd" clip-rule="evenodd" d="M46.2846 66.2443C40.6445 67.8615 37.3834 73.7448 39.0006 79.3848C40.6179 85.0249 46.5011 88.286 52.1412 86.6688C57.7813 85.0515 61.0424 79.1683 59.4252 73.5282C57.8079 67.8881 51.9247 64.627 46.2846 66.2443ZM37.1439 79.9173C35.2326 73.2517 39.0866 66.2988 45.7522 64.3875C52.4177 62.4762 59.3706 66.3302 61.2819 72.9958C63.1932 79.6613 59.3392 86.6142 52.6736 88.5256C46.0081 90.4369 39.0552 86.5828 37.1439 79.9173Z" fill="#F0BA09"/>
</g>
</g>
</g>
<defs>
<filter id="filter0_f_1006_45314" x="7.81039" y="16.8156" width="110.422" height="110.422" filterUnits="userSpaceOnUse" color-interpolation-filters="sRGB">
<feFlood flood-opacity="0" result="BackgroundImageFix"/>
<feBlend mode="normal" in="SourceGraphic" in2="BackgroundImageFix" result="shape"/>
<feGaussianBlur stdDeviation="16.8382" result="effect1_foregroundBlur_1006_45314"/>
</filter>
<clipPath id="clip0_1006_45314">
<rect width="128" height="128" fill="white"/>
</clipPath>
</defs>
</svg>
