<svg width="128" height="128" viewBox="0 0 128 128" fill="none" xmlns="http://www.w3.org/2000/svg">
<g clip-path="url(#clip0_1016_306)">
<circle cx="64" cy="64" r="64" fill="#252525"/>
<mask id="mask0_1016_306" style="mask-type:alpha" maskUnits="userSpaceOnUse" x="0" y="0" width="128" height="128">
<circle cx="64" cy="64" r="64" fill="#252525"/>
</mask>
<g mask="url(#mask0_1016_306)">
<path d="M100.889 -0.916382H-14.4304L100.889 114.403H-14.4304" stroke="#333333"/>
<path d="M69.3561 -14.4304H-45.9628L69.3561 100.889H-45.9628" stroke="#333333"/>
<path d="M33.3189 -27.9443H-82L33.3189 87.3746H-82" stroke="#333333"/>
<path d="M136.926 12.5975H21.6068L136.926 127.916H21.6068" stroke="#333333"/>
<path d="M172.963 26.1115H57.644L172.963 141.43H57.644" stroke="#333333"/>
<path d="M209 39.6254H93.6812L209 154.944H93.6812" stroke="#333333"/>
</g>
<path d="M18 30C18 28.8954 18.8954 28 20 28H88V49.0284C88 50.1218 87.1219 51.0125 86.0286 51.0282L20.0286 51.971C18.9129 51.987 18 51.087 18 49.9712V30Z" fill="#405380"/>
<path d="M15 27C15 25.8954 15.8954 25 17 25H86V47C86 48.1046 85.1046 49 84 49H17C15.8954 49 15 48.1046 15 47V27Z" fill="#90AEF4"/>
<rect x="21" y="39.0001" width="59.0001" height="4" rx="2" fill="#19191A" fill-opacity="0.4"/>
<rect x="56.5736" y="31.0001" width="23.4265" height="4" rx="2" fill="#19191A" fill-opacity="0.4"/>
<path d="M42 66H124.789C125.893 66 126.789 66.8954 126.789 68V103.976C126.789 105.09 125.879 105.989 124.765 105.976L43.9764 105.023C42.8811 105.01 42 104.119 42 103.023V66Z" fill="#333333"/>
<path d="M38 63H122C123.105 63 124 63.8954 124 65V101C124 102.105 123.105 103 122 103H40C38.8954 103 38 102.105 38 101V63Z" fill="#19191A"/>
<rect x="89" y="69" width="30" height="4" rx="2" fill="#2E2E2E"/>
<rect x="44" y="77" width="75" height="4" rx="2" fill="#2E2E2E"/>
<rect x="44" y="85" width="75" height="4" rx="2" fill="#2E2E2E"/>
<rect x="74" y="93" width="45" height="4" rx="2" fill="#2E2E2E"/>
<circle cx="18" cy="84" r="16" fill="#F0BA09"/>
<circle cx="16" cy="83" r="16" fill="#FFD60A"/>
<path fill-rule="evenodd" clip-rule="evenodd" d="M21.7436 86.9494H20.9231C20.4702 86.9494 20.1026 86.5864 20.1026 86.1392V82.0886C20.1026 81.6414 20.4702 81.2785 20.9231 81.2785H21.7436C22.6503 81.2785 23.3846 82.0035 23.3846 82.8987V85.3291C23.3846 86.2243 22.6503 86.9494 21.7436 86.9494Z" fill="#19191A"/>
<path fill-rule="evenodd" clip-rule="evenodd" d="M20.9231 81.8861C20.81 81.8861 20.7179 81.977 20.7179 82.0886V86.1392C20.7179 86.2509 20.81 86.3418 20.9231 86.3418H21.7436C22.3104 86.3418 22.7692 85.8887 22.7692 85.3291V82.8987C22.7692 82.3391 22.3104 81.8861 21.7436 81.8861H20.9231ZM19.4872 82.0886C19.4872 81.3059 20.1303 80.6709 20.9231 80.6709H21.7436C22.9901 80.6709 24 81.668 24 82.8987V85.3291C24 86.5599 22.9901 87.557 21.7436 87.557H20.9231C20.1303 87.557 19.4872 86.922 19.4872 86.1392V82.0886Z" fill="#19191A"/>
<path fill-rule="evenodd" clip-rule="evenodd" d="M11.0769 86.9494H10.2564C9.34974 86.9494 8.61538 86.2243 8.61538 85.3291V82.8987C8.61538 82.0035 9.34974 81.2785 10.2564 81.2785H11.0769C11.5298 81.2785 11.8974 81.6414 11.8974 82.0886V86.1392C11.8974 86.5864 11.5298 86.9494 11.0769 86.9494Z" fill="#19191A"/>
<path fill-rule="evenodd" clip-rule="evenodd" d="M10.2564 81.8861C9.68961 81.8861 9.23077 82.3391 9.23077 82.8987V85.3291C9.23077 85.8887 9.68961 86.3418 10.2564 86.3418H11.0769C11.19 86.3418 11.2821 86.2509 11.2821 86.1392V82.0886C11.2821 81.977 11.19 81.8861 11.0769 81.8861H10.2564ZM8 82.8987C8 81.668 9.00988 80.6709 10.2564 80.6709H11.0769C11.8697 80.6709 12.5128 81.3059 12.5128 82.0886V86.1392C12.5128 86.922 11.8697 87.557 11.0769 87.557H10.2564C9.00988 87.557 8 86.5599 8 85.3291V82.8987Z" fill="#19191A"/>
<path fill-rule="evenodd" clip-rule="evenodd" d="M10.0513 80.8734C10.0513 77.6295 12.7145 75 16 75C19.2855 75 21.9487 77.6295 21.9487 80.8734V81.2785C21.9487 81.614 21.6732 81.8861 21.3333 81.8861C20.9935 81.8861 20.7179 81.614 20.7179 81.2785V80.8734C20.7179 78.3006 18.6058 76.2152 16 76.2152C13.3942 76.2152 11.2821 78.3006 11.2821 80.8734V81.2785C11.2821 81.614 11.0065 81.8861 10.6667 81.8861C10.3268 81.8861 10.0513 81.614 10.0513 81.2785V80.8734Z" fill="#19191A"/>
<path fill-rule="evenodd" clip-rule="evenodd" d="M16.5128 90.3924H15.4872C14.921 90.3924 14.4615 89.9387 14.4615 89.3797C14.4615 88.8208 14.921 88.3671 15.4872 88.3671H16.5128C17.079 88.3671 17.5385 88.8208 17.5385 89.3797C17.5385 89.9387 17.079 90.3924 16.5128 90.3924Z" fill="#19191A"/>
<path fill-rule="evenodd" clip-rule="evenodd" d="M15.4872 88.9747C15.2609 88.9747 15.0769 89.1563 15.0769 89.3797C15.0769 89.6032 15.2609 89.7848 15.4872 89.7848H16.5128C16.7391 89.7848 16.9231 89.6032 16.9231 89.3797C16.9231 89.1563 16.7391 88.9747 16.5128 88.9747H15.4872ZM13.8462 89.3797C13.8462 88.4852 14.5812 87.7595 15.4872 87.7595H16.5128C17.4188 87.7595 18.1538 88.4852 18.1538 89.3797C18.1538 90.2743 17.4188 91 16.5128 91H15.4872C14.5812 91 13.8462 90.2743 13.8462 89.3797Z" fill="#19191A"/>
<path fill-rule="evenodd" clip-rule="evenodd" d="M20.9231 86.3418C21.2629 86.3418 21.5385 86.6138 21.5385 86.9494V87.7595C21.5385 88.9902 20.5286 89.9873 19.2821 89.9873H17.5385C17.1986 89.9873 16.9231 89.7153 16.9231 89.3797C16.9231 89.0442 17.1986 88.7722 17.5385 88.7722H19.2821C19.8489 88.7722 20.3077 88.3191 20.3077 87.7595V86.9494C20.3077 86.6138 20.5832 86.3418 20.9231 86.3418Z" fill="#19191A"/>
<circle cx="112" cy="38" r="16" fill="#333333"/>
<circle cx="110" cy="37" r="16" fill="#19191A"/>
<path d="M110 30C108.019 30 106.412 31.7174 106.412 33.7814C106.412 35.8508 108.024 37.5385 110 37.5385C111.981 37.5385 113.588 35.8211 113.588 33.757C113.588 31.6877 111.976 30 110 30Z" fill="#666666"/>
<path d="M107.257 38.6154C105.465 38.6154 104 40.1488 104 42.0256V42.7436C104 43.4358 104.539 44 105.2 44H114.8C115.461 44 116 43.4358 116 42.7436V42.0256C116 40.1488 114.535 38.6154 112.743 38.6154H107.257Z" fill="#666666"/>
</g>
<defs>
<clipPath id="clip0_1016_306">
<rect width="128" height="128" fill="white"/>
</clipPath>
</defs>
</svg>
