<svg width="128" height="128" viewBox="0 0 128 128" fill="none" xmlns="http://www.w3.org/2000/svg">
<g clip-path="url(#clip0_1016_74)">
<circle cx="64" cy="64" r="64" fill="#252525"/>
<mask id="mask0_1016_74" style="mask-type:alpha" maskUnits="userSpaceOnUse" x="0" y="0" width="128" height="128">
<circle cx="64" cy="64" r="64" fill="#252525"/>
</mask>
<g mask="url(#mask0_1016_74)">
<path d="M-34 20.3181L-19.1265 9.0663C-16.2713 6.90635 -12.3287 6.90634 -9.4735 9.0663L0.573488 16.6669C3.42867 18.8268 7.37132 18.8268 10.2265 16.6669L20.2735 9.0663C23.1287 6.90635 27.0713 6.90634 29.9265 9.0663L39.9735 16.6669C42.8287 18.8268 46.7713 18.8268 49.6265 16.6669L59.6735 9.0663C62.5287 6.90635 66.4713 6.90634 69.3265 9.0663L79.3735 16.6669C82.2287 18.8268 86.1713 18.8268 89.0265 16.6669L99.0735 9.0663C101.929 6.90635 105.871 6.90634 108.726 9.0663L118.773 16.6669C121.629 18.8268 125.571 18.8268 128.426 16.6669L138.473 9.0663C141.329 6.90635 145.271 6.90634 148.126 9.0663L163 20.3181" stroke="#333333"/>
<path d="M-34 48.4722L-19.1265 37.2204C-16.2713 35.0604 -12.3287 35.0604 -9.4735 37.2204L0.573488 44.8209C3.42867 46.9809 7.37132 46.9809 10.2265 44.821L20.2735 37.2204C23.1287 35.0604 27.0713 35.0604 29.9265 37.2204L39.9735 44.8209C42.8287 46.9809 46.7713 46.9809 49.6265 44.821L59.6735 37.2204C62.5287 35.0604 66.4713 35.0604 69.3265 37.2204L79.3735 44.8209C82.2287 46.9809 86.1713 46.9809 89.0265 44.821L99.0735 37.2204C101.929 35.0604 105.871 35.0604 108.726 37.2204L118.773 44.8209C121.629 46.9809 125.571 46.9809 128.426 44.821L138.473 37.2204C141.329 35.0604 145.271 35.0604 148.126 37.2204L163 48.4722" stroke="#333333"/>
<path d="M-34 76.6263L-19.1265 65.3745C-16.2713 63.2145 -12.3287 63.2145 -9.4735 65.3745L0.573488 72.975C3.42867 75.135 7.37132 75.135 10.2265 72.9751L20.2735 65.3745C23.1287 63.2145 27.0713 63.2145 29.9265 65.3745L39.9735 72.975C42.8287 75.135 46.7713 75.135 49.6265 72.9751L59.6735 65.3745C62.5287 63.2145 66.4713 63.2145 69.3265 65.3745L79.3735 72.975C82.2287 75.135 86.1713 75.135 89.0265 72.9751L99.0735 65.3745C101.929 63.2145 105.871 63.2145 108.726 65.3745L118.773 72.975C121.629 75.135 125.571 75.135 128.426 72.9751L138.473 65.3745C141.329 63.2145 145.271 63.2145 148.126 65.3745L163 76.6263" stroke="#333333"/>
<path d="M-34 104.78L-19.1265 93.5286C-16.2713 91.3687 -12.3287 91.3687 -9.4735 93.5286L0.573488 101.129C3.42867 103.289 7.37132 103.289 10.2265 101.129L20.2735 93.5286C23.1287 91.3687 27.0713 91.3687 29.9265 93.5286L39.9735 101.129C42.8287 103.289 46.7713 103.289 49.6265 101.129L59.6735 93.5286C62.5287 91.3687 66.4713 91.3687 69.3265 93.5286L79.3735 101.129C82.2287 103.289 86.1713 103.289 89.0265 101.129L99.0735 93.5286C101.929 91.3687 105.871 91.3687 108.726 93.5286L118.773 101.129C121.629 103.289 125.571 103.289 128.426 101.129L138.473 93.5286C141.329 91.3687 145.271 91.3687 148.126 93.5286L163 104.78" stroke="#333333"/>
<path d="M-34 132.935L-19.1265 121.683C-16.2713 119.523 -12.3287 119.523 -9.4735 121.683L0.573488 129.283C3.42867 131.443 7.37132 131.443 10.2265 129.283L20.2735 121.683C23.1287 119.523 27.0713 119.523 29.9265 121.683L39.9735 129.283C42.8287 131.443 46.7713 131.443 49.6265 129.283L59.6735 121.683C62.5287 119.523 66.4713 119.523 69.3265 121.683L79.3735 129.283C82.2287 131.443 86.1713 131.443 89.0265 129.283L99.0735 121.683C101.929 119.523 105.871 119.523 108.726 121.683L118.773 129.283C121.629 131.443 125.571 131.443 128.426 129.283L138.473 121.683C141.329 119.523 145.271 119.523 148.126 121.683L163 132.935" stroke="#333333"/>
</g>
<path d="M99 58C114.464 58 127 45.464 127 30C127 14.536 114.464 2 99 2C83.536 2 71 14.536 71 30C71 45.464 83.536 58 99 58Z" fill="#F0BA09"/>
<path d="M97 56C112.464 56 125 43.464 125 28C125 12.536 112.464 0 97 0C81.536 0 69 12.536 69 28C69 43.464 81.536 56 97 56Z" fill="#FFD60A"/>
<path d="M97 50.4001C109.371 50.4001 119.4 40.3712 119.4 28.0001C119.4 15.6289 109.371 5.60005 97 5.60005C84.6289 5.60005 74.6 15.6289 74.6 28.0001C74.6 40.3712 84.6289 50.4001 97 50.4001Z" fill="#19191A"/>
<path fill-rule="evenodd" clip-rule="evenodd" d="M82.4061 44.994C79.0365 41.0739 77 35.9748 77 30.4C77 18.0288 87.0288 8 99.4 8C104.975 8 110.074 10.0365 113.994 13.4061C109.886 8.62693 103.797 5.6001 97.0001 5.6001C84.6289 5.6001 74.6001 15.6289 74.6001 28.0001C74.6001 34.7965 77.6269 40.886 82.4061 44.994Z" fill="#2E2E2E"/>
<path d="M96.0345 9.65517H97.9655V28H96.0345V9.65517Z" fill="white"/>
<path d="M107 35.8003L104.801 38L96 29.2011L98.2003 27L107 35.8003Z" fill="white"/>
<path d="M97 31C98.6569 31 100 29.6569 100 28C100 26.3431 98.6569 25 97 25C95.3431 25 94 26.3431 94 28C94 29.6569 95.3431 31 97 31Z" fill="white"/>
<path d="M97 30C98.1046 30 99 29.1046 99 28C99 26.8954 98.1046 26 97 26C95.8954 26 95 26.8954 95 28C95 29.1046 95.8954 30 97 30Z" fill="#90AEF4"/>
<path d="M11.2896 82.7188C11.2213 81.6671 11.9808 80.7429 13.0257 80.6061L89.5045 70.5914C90.614 70.4462 91.6269 71.2395 91.7517 72.3515L95.6922 107.466C95.8146 108.558 95.0342 109.544 93.9439 109.675L15.7664 119.096C14.6268 119.234 13.6057 118.386 13.5313 117.24L11.2896 82.7188Z" fill="#333333"/>
<path d="M23.5245 77.827L41.6716 45.4082C42.3128 44.2626 43.8653 44.0351 44.8083 44.9485L71.5245 70.8269" stroke="white" stroke-width="2"/>
<rect x="7.59302" y="77.3853" width="80" height="40" rx="2" transform="rotate(-8 7.59302 77.3853)" fill="#19191A"/>
<rect x="21.4247" y="89.5788" width="55" height="4" rx="2" transform="rotate(-8 21.4247 89.5788)" fill="#2E2E2E"/>
<rect x="34.5605" y="96.8212" width="31" height="4" rx="2" transform="rotate(-8 34.5605 96.8212)" fill="#2E2E2E"/>
<path d="M49.0245 46.25C49.0245 49.0539 46.7243 51.3269 43.8868 51.3269C41.0494 51.3269 36.1803 48.3654 38.7491 46.25C38.7491 43.4461 39.7649 40.3269 42.6024 40.3269C45.4399 40.3269 49.0245 43.4461 49.0245 46.25Z" fill="#405380"/>
<circle cx="42.0245" cy="45.3269" r="5" fill="#90AEF4"/>
</g>
<defs>
<clipPath id="clip0_1016_74">
<rect width="128" height="128" fill="white"/>
</clipPath>
</defs>
</svg>
