<svg width="48" height="48" viewBox="0 0 48 48" fill="none" xmlns="http://www.w3.org/2000/svg">
<path fill-rule="evenodd" clip-rule="evenodd" d="M18.2023 39.5662C16.7926 39.3955 14.7057 37.0503 12.9287 37.0909C11.2303 37.1298 11.7114 38.6068 11.7114 38.6068C13.2194 41.1221 15.6261 40.7545 18.2023 39.5662ZM35.4582 28.7518C34.5144 30.2497 30.7586 31.3519 29.8573 33.3764C28.9959 35.3114 30.9171 35.5564 30.9171 35.5564C34.5559 35.1975 35.4243 32.2888 35.4582 28.7518ZM18.1813 26.9079C21.014 26.6672 25.3572 22.1244 28.9095 22.333C32.3047 22.5324 31.2364 25.453 31.2364 25.453C28.0394 30.3775 23.2505 29.4697 18.1813 26.9079ZM34.786 13.2091C37.6187 13.4498 41.9619 17.9926 45.5142 17.7841C48.9094 17.5847 47.8411 14.664 47.8411 14.664C44.6441 9.7396 39.8552 10.6474 34.786 13.2091Z" fill="#B20C0C"/>
<path fill-rule="evenodd" clip-rule="evenodd" d="M26.6857 36.0827C24.0385 34.0812 20.8466 36 19.3415 37.6162C14.7944 42.4992 11.6962 38.5536 11.6962 38.5536C11.6962 38.5536 13.2861 43.6289 19.5116 43.7131C21.3842 43.7384 23.0335 43.4158 25.2362 41.5363C26.9392 40.0831 28.1889 37.2192 26.6857 36.0827ZM36.0537 17.3325C32.3867 19.2494 32.848 23.8698 33.8675 26.4277C36.9475 34.1557 30.849 35.5446 30.849 35.5446C30.849 35.5446 37.4169 36.4578 40.8301 29.4858C41.8567 27.3886 42.3723 25.3578 41.4279 21.8732C40.6978 19.1791 38.1358 16.2441 36.0537 17.3325ZM1.45619 19.3312C6.89579 15.5163 13.1446 19.5837 16.0402 22.925C24.7882 33.02 31.2692 25.3478 31.2692 25.3478C31.2692 25.3478 27.725 35.3883 15.2634 35.111C11.5151 35.0276 8.23849 34.2642 3.96599 30.3462C0.662595 27.3169 -1.63251 21.4974 1.45619 19.3312ZM18.0609 20.7855C23.5005 24.6004 29.7493 20.533 32.6449 17.1916C41.393 7.09674 47.8739 14.7688 47.8739 14.7688C47.8739 14.7688 44.3297 4.72844 31.8681 5.00564C28.1198 5.08904 24.8432 5.85244 20.5707 9.77054C17.2674 12.7998 14.9722 18.6193 18.0609 20.7855Z" fill="#F04E23"/>
</svg>
