<svg width="48" height="48" viewBox="0 0 48 48" fill="none" xmlns="http://www.w3.org/2000/svg">
<path fill-rule="evenodd" clip-rule="evenodd" d="M0.707077 18.171C8.66672 11.5954 15.9208 7.67944 22.4694 6.42293C27.1058 5.52078 31.9076 6.0697 36.2208 7.99492C48.0848 13.331 49.9452 27.3682 46.378 36.4442C50.2391 19.6593 42.4359 12.6407 35.3606 10.5403C31.1921 9.30264 26.4627 9.65048 22.3723 10.9582C14.9708 13.3175 9.69943 18.7318 5.69534 21.9647C2.92079 22.4096 0.938961 21.6331 0.696289 18.171H0.707077Z" fill="#ED1C24"/>
<path fill-rule="evenodd" clip-rule="evenodd" d="M14.4087 21.7061C13.0066 28.7813 14.1094 35.0584 18.8819 37.8977C22.6568 40.1437 27.9417 40.0278 31.9215 38.4639C35.567 37.0322 38.5626 34.4194 42.1677 31.7041C44.7319 31.2377 45.6729 32.6344 45.53 34.2037C41.0837 37.7736 36.5619 40.5077 31.8972 41.6834C28.4783 42.5435 25.2588 42.5084 21.9585 41.2115C13.1279 37.7413 11.9658 27.7297 14.4087 21.7061Z" fill="#D1D3D4"/>
<path fill-rule="evenodd" clip-rule="evenodd" d="M20.0985 17.3972C22.8083 16.0867 25.4454 15.623 28.0608 15.4639C25.9954 15.9654 24.3587 15.6769 23.5984 17.7288C21.808 18.2195 19.9772 19.2145 18.1221 20.4386C18.5997 19.318 19.2685 18.2889 20.0985 17.3972V17.3972Z" fill="#F7931E"/>
<path fill-rule="evenodd" clip-rule="evenodd" d="M17.8518 21.1021C20.8581 19.451 24.1533 18.3919 27.5587 17.9824C24.2421 19.034 22.414 18.8453 21.872 21.7573L17.1885 24.3027C17.297 23.2156 17.5193 22.1428 17.8518 21.1021V21.1021Z" fill="#F7931E"/>
<path fill-rule="evenodd" clip-rule="evenodd" d="M17.169 24.9688C22.3271 20.7652 34.822 18.3466 39.325 21.1481C33.3714 19.9671 27.4772 20.7841 22.0144 23.2162C21.5452 23.4238 21.4751 23.7851 21.3996 24.2274C21.3241 24.6696 21.2351 25.101 21.1515 25.5378C20.1134 25.918 18.9594 26.7242 17.6328 28.1586C17.2904 27.1312 17.1334 26.0512 17.169 24.9688V24.9688Z" fill="#F7931E"/>
<path fill-rule="evenodd" clip-rule="evenodd" d="M17.9043 28.9622C22.9303 24.5321 33.6052 22.4101 38.7121 24.1357C32.683 23.7259 27.2364 24.8772 21.9785 27.1233C21.8086 27.2015 21.7089 27.3606 21.7628 27.6976C21.8167 28.0347 22.0324 29.2453 21.7628 29.461C20.8794 30.081 20.0562 30.7825 19.3037 31.5561C18.7355 30.7504 18.2657 29.8795 17.9043 28.9622V28.9622Z" fill="#F7931E"/>
<path fill-rule="evenodd" clip-rule="evenodd" d="M19.7402 32.1383C21.9836 29.1156 31.1054 26.5541 33.3407 27.6839C29.9401 28.056 26.613 28.9273 23.4666 30.2697C23.2482 30.4099 23.1754 30.6067 23.2779 30.9734C23.3776 31.4372 23.4747 31.901 23.5745 32.3648L22.0564 34.2711C21.1752 33.6883 20.3963 32.964 19.751 32.1275L19.7402 32.1383Z" fill="#F7931E"/>
<path fill-rule="evenodd" clip-rule="evenodd" d="M22.4854 34.5838C24.2299 32.4132 26.7456 31.3481 29.8922 31.1675C27.8808 31.7957 26.0985 32.5318 25.0011 33.5942C24.7584 33.88 25.1682 34.0014 25.3705 34.0984L26.0931 34.4436L25.5673 36.0074C24.4764 35.6847 23.4383 35.2051 22.4854 34.5838V34.5838Z" fill="#F7931E"/>
<path fill-rule="evenodd" clip-rule="evenodd" d="M26.1328 36.1481C27.055 34.6058 28.2414 33.8912 29.7109 34.0638C28.7537 34.3766 27.9232 34.808 27.4459 35.5792C27.3785 35.8488 27.5268 35.8218 27.6293 35.8623L28.1955 35.9836C28.3816 36.016 28.3627 36.1049 28.3573 36.2532C28.3573 36.3341 28.3357 36.4123 28.3277 36.4932C27.5864 36.4561 26.851 36.3432 26.1328 36.1562V36.1481Z" fill="#F7931E"/>
<path fill-rule="evenodd" clip-rule="evenodd" d="M21.6282 15.9788C24.1169 14.0698 27.1935 12.8915 31.8744 13.7382C36.4824 14.9677 38.6018 17.451 40.0228 20.2822C35.9782 14.6468 29.9006 13.0803 21.6201 15.9681L21.6282 15.9788Z" fill="#F7931E"/>
</svg>
