<svg width="128" height="128" viewBox="0 0 128 128" fill="none" xmlns="http://www.w3.org/2000/svg">
<g clip-path="url(#clip0_1016_137)">
<circle cx="64" cy="64" r="64" fill="#EDEEEF"/>
<mask id="mask0_1016_137" style="mask-type:alpha" maskUnits="userSpaceOnUse" x="0" y="0" width="128" height="128">
<circle cx="64" cy="64" r="64" fill="#EDEEEF"/>
</mask>
<g mask="url(#mask0_1016_137)">
<circle cx="64" cy="64" r="31.4277" stroke="#E4E4E4"/>
<circle cx="64" cy="64" r="41.6446" stroke="#E4E4E4"/>
<circle cx="64" cy="64" r="52.5" stroke="#E4E4E4"/>
</g>
<path d="M28 83H102C103.105 83 104 83.8954 104 85V104.984C104 106.095 103.095 106.993 101.984 106.984L29.9842 106.416C28.8858 106.407 28 105.514 28 104.416V83Z" fill="#E4E4E4"/>
<path d="M24 81C24 79.8954 24.8954 79 26 79H100C101.105 79 102 79.8954 102 81V102C102 103.105 101.105 104 100 104H26C24.8954 104 24 103.105 24 102V81Z" fill="white"/>
<rect x="31" y="86" width="65" height="4" rx="2" fill="#E8E9EB"/>
<rect x="70" y="94" width="26" height="4" rx="2" fill="#E8E9EB"/>
<mask id="mask1_1016_137" style="mask-type:alpha" maskUnits="userSpaceOnUse" x="50" y="64" width="19" height="19">
<ellipse cx="59.1668" cy="73.6117" rx="9.06847" ry="9.08961" transform="rotate(20 59.1668 73.6117)" fill="#EDEEEF"/>
</mask>
<g mask="url(#mask1_1016_137)">
<ellipse cx="59.1668" cy="73.6117" rx="9.06847" ry="9.08961" transform="rotate(20 59.1668 73.6117)" fill="#FFD60A"/>
<path opacity="0.7" d="M67.1342 80.7186L49.4937 70.6728L50.7123 68.6601L69.5714 76.6932L67.1342 80.7186Z" fill="#F0BA09"/>
</g>
<ellipse cx="76.1206" cy="20.3168" rx="5.01919" ry="5.03089" transform="rotate(20 76.1206 20.3168)" fill="#0722AA"/>
<path d="M76.1207 20.3168C69.6873 17.9752 62.5023 18.5188 56.1462 21.8279C49.79 25.137 44.7835 30.9406 42.228 37.9619L36.469 53.7845L32.4753 55.8637C31.6855 56.275 31.0145 56.9211 30.5471 57.7201C30.0797 58.5191 29.8369 59.4353 29.8494 60.3528C29.8619 61.2702 30.1291 62.1478 30.6174 62.8746C31.1056 63.6014 31.7928 64.1447 32.5922 64.4359L81.1062 82.0935C81.9058 82.3843 82.7815 82.4099 83.6226 82.1669C84.4638 81.924 85.2326 81.4235 85.8319 80.7287C86.4313 80.034 86.8342 79.1761 86.9897 78.2635C87.1453 77.351 87.0465 76.4248 86.7059 75.602L84.983 71.4422L90.742 55.6196C93.2975 48.5982 93.1928 40.9343 90.4507 34.3137C87.7087 27.6932 82.554 22.6583 76.1207 20.3168Z" fill="#0A33FF"/>
<path fill-rule="evenodd" clip-rule="evenodd" d="M77.2552 80.6915C77.2639 80.6646 77.2724 80.6376 77.2808 80.6106C77.5971 79.584 77.635 78.5126 77.3895 77.5317L76.1475 72.5727L85.0125 55.1241C88.9464 47.3813 90.046 38.5975 88.0694 30.7049C87.9444 30.2061 87.8079 29.7133 87.6599 29.2271C88.7575 30.7868 89.6957 32.49 90.4509 34.3134C93.1929 40.9339 93.2977 48.5979 90.7421 55.6192L84.9831 71.4418L86.706 75.6017C87.0467 76.4245 87.1454 77.3507 86.9899 78.2632C86.8343 79.1757 86.4314 80.0336 85.8321 80.7284C85.2327 81.4232 84.4639 81.9237 83.6228 82.1666C82.7816 82.4095 81.9059 82.384 81.1064 82.0932L77.2552 80.6915Z" fill="#0722AA"/>
<ellipse rx="8" ry="7.99998" transform="matrix(1 -0.000749131 -0.000747746 1 52.006 29.0058)" fill="#0722AA"/>
<ellipse rx="8" ry="7.99998" transform="matrix(1 -0.000749131 -0.000747746 1 50.006 27.0058)" fill="white"/>
</g>
<defs>
<clipPath id="clip0_1016_137">
<rect width="128" height="128" fill="white"/>
</clipPath>
</defs>
</svg>
