<svg width="48" height="48" viewBox="0 0 48 48" fill="none" xmlns="http://www.w3.org/2000/svg">
<path fill-rule="evenodd" clip-rule="evenodd" d="M6.67899 2.58347e-07H41.321C44.9811 2.58347e-07 48 3.01926 48 6.67871V41.3213C48 44.9807 44.9811 48 41.321 48H6.67899C3.01894 48 -4.51618e-06 44.9807 -4.51618e-06 41.3213V6.67963C-0.00318314 4.90887 0.699144 3.20957 1.9521 1.95649C3.20505 0.703419 4.9057 -0.000492322 6.67899 2.58347e-07ZM46 22C43.1113 27.7661 38.9043 33.2422 31.8438 33.2796C22.9654 33.2796 3.85412 12.8105 2 33.027V40.9188C1.9973 42.2659 2.52586 43.5588 3.46906 44.5121C4.41226 45.4654 5.69257 46.0007 7.02744 46H40.9716C42.3068 46.001 43.5875 45.4656 44.5309 44.5121C45.4744 43.5586 46.0029 42.2653 46 40.9178V22ZM7.05943 2C4.31574 2 2.03612 4.28903 2 7.0433V26C4.92153 20.277 9.12599 14.6616 16.1445 14.6616C25.087 14.6616 44.4318 35.5851 46 14.6263V7.0433C46 4.25374 43.7547 2 40.9758 2H7.05943Z" fill="white"/>
</svg>
