<svg width="48" height="48" viewBox="0 0 48 48" fill="none" xmlns="http://www.w3.org/2000/svg">
<path d="M14.1858 16.416V23.2808C20.0285 19.0358 26.2096 17.0655 33.0138 16.9368L33.727 16.9233V23.3707C36.1924 21.4425 38.6579 19.0482 41.1234 16.1046L41.085 0.0665894C32.9508 9.84569 24.1383 16.0947 14.1858 16.416Z" fill="white"/>
<path d="M21.2283 41.9709C21.2283 45.2916 23.9367 48 27.2574 48C30.5784 48 33.2868 45.2916 33.2868 41.9709C33.2868 38.6499 30.5784 35.9415 27.2574 35.9415C23.9367 35.9415 21.2283 38.6499 21.2283 41.9709Z" fill="white"/>
<path d="M33.027 31.6506V17.6367C24.048 17.8065 15.069 21.2412 6.08942 31.962L6.12782 48C14.262 38.2209 23.0748 31.9719 33.027 31.6506Z" fill="white"/>
</svg>
