<svg xmlns="http://www.w3.org/2000/svg" xmlns:xlink="http://www.w3.org/1999/xlink" width="48" height="48" viewBox="0 0 48 48">
  <defs>
    <clipPath id="clip-path">
      <rect width="48" height="48" fill="none"/>
    </clipPath>
  </defs>
  <g id="Bank-Gardeshgari" clip-path="url(#clip-path)">
    <rect id="Boundary" width="48" height="48" fill="none"/>
    <path id="Shape" d="M4.31-16.534,12-3.215h5.734l-7.66-13.205,1.461-2.531L20.621-3.215H36l2.871-4.972-15.287.006L14.45-24l3.325-5.76h-5.83Zm36,5.853L48-24l-2.867-4.966L37.527-15.73H34.6L43.69-31.466,36-44.785H30.259l7.649,13.236L28.775-15.73H22.124l2.915,5.049ZM25.86-37.319,24.4-39.85l-15.266.031L12-44.785H27.379l7.636,13.225L32.1-26.511l-3.325-5.76H10.509L2.871-19.028,0-24,7.69-37.319Z" transform="translate(0 48)" fill="#b01116" fill-rule="evenodd"/>
    <path id="Shape-2" data-name="Shape" d="M24-29.74a5.832,5.832,0,0,1,5.829,5.829A5.832,5.832,0,0,1,24-18.082a5.832,5.832,0,0,1-5.829-5.829A5.832,5.832,0,0,1,24-29.74Z" transform="translate(0 48)" fill="#00a1be" fill-rule="evenodd"/>
  </g>
</svg>
