<svg xmlns="http://www.w3.org/2000/svg" xmlns:xlink="http://www.w3.org/1999/xlink" width="48" height="48" viewBox="0 0 48 48">
  <defs>
    <clipPath id="clip-path">
      <rect width="48" height="48" fill="none"/>
    </clipPath>
    <radialGradient id="radial-gradient" cx="0.5" cy="0.5" r="0.5" gradientUnits="objectBoundingBox">
      <stop offset="0" stop-color="#f4b31b"/>
      <stop offset="1" stop-color="#cc932b"/>
    </radialGradient>
    <linearGradient id="linear-gradient" x1="0.5" y1="0.999" x2="0.5" y2="-0.001" gradientUnits="objectBoundingBox">
      <stop offset="0" stop-color="#6e2616"/>
      <stop offset="1" stop-color="#9b4722"/>
    </linearGradient>
    <linearGradient id="linear-gradient-2" x1="0.501" y1="0" x2="0.501" y2="1" xlink:href="#linear-gradient"/>
  </defs>
  <g id="Bank-Ayandehr" clip-path="url(#clip-path)">
    <rect id="Boundary" width="48" height="48" fill="none"/>
    <path id="Shape" d="M6.679,0H41.321A6.716,6.716,0,0,1,48,6.679V41.321A6.716,6.716,0,0,1,41.321,48H6.679A6.716,6.716,0,0,1,0,41.321V6.68A6.672,6.672,0,0,1,6.679,0" fill="url(#radial-gradient)"/>
    <path id="Shape-2" data-name="Shape" d="M44,0V18.918a5.1,5.1,0,0,1-1.469,3.594A5,5,0,0,1,38.972,24H5.027a5,5,0,0,1-3.558-1.488A5.1,5.1,0,0,1,0,18.919V11.027c1.854-20.216,20.965.253,29.844.253C36.9,11.242,41.111,5.766,44,0" transform="translate(2 22)" fill="url(#linear-gradient)"/>
    <path id="Shape-3" data-name="Shape" d="M5.059,0H38.976A5.028,5.028,0,0,1,44,5.043v7.583c-1.568,20.959-20.913.035-29.855.035C7.126,12.662,2.922,18.277,0,24V5.043A5.128,5.128,0,0,1,5.059,0" transform="translate(2 2)" fill="url(#linear-gradient-2)"/>
  </g>
</svg>
