<svg xmlns="http://www.w3.org/2000/svg" xmlns:xlink="http://www.w3.org/1999/xlink" width="48" height="48" viewBox="0 0 48 48">
  <defs>
    <clipPath id="clip-path">
      <rect width="48" height="48" fill="none"/>
    </clipPath>
    <linearGradient id="linear-gradient" x1="0.086" y1="0.501" x2="0.912" y2="0.501" gradientUnits="objectBoundingBox">
      <stop offset="0" stop-color="#ece482"/>
      <stop offset="1" stop-color="#d8ac4e"/>
    </linearGradient>
  </defs>
  <g id="Bank-Keshavarzi" clip-path="url(#clip-path)">
    <rect id="Boundary" width="48" height="48" fill="none"/>
    <path id="Shape" d="M25.94,0H22.06V-2.942H20.293l0-3.631-7.822-.008.009-9.253-1.843,0-.006-.814H8.355l0-1.244H6.927v-1.854H8.355v-1.63h2.222l-.64-.986H6.227c-.516,0-.853.64-.853.64l-.636-.2a4.46,4.46,0,0,1,.246-.768c.1-.283.327-.838.327-.838l.03-.075c.051-.122.1-.243.161-.361a3.488,3.488,0,0,1,1.513-1.7,2.17,2.17,0,0,1,.281-.113,2.224,2.224,0,0,1,.533-.1c.055,0,.11,0,.165,0l.015-.037.023-.054a1.931,1.931,0,0,1,.252-.415A1.79,1.79,0,0,1,8.5-26.6a2.435,2.435,0,0,1,1.111-.569l-.019-3.475,1.873.006L11.46-33.1l1.833-.011.007-1.641,1.117-.005L13.121-37h-1.74l2.9-2.907,4.991.006v-5.5H22.1V-48H25.9v2.6h2.824v5.5l4.991-.006L36.619-37h-1.74l-1.3,2.245,1.117.005.007,1.641,1.833.011-.008,2.458,1.874-.006-.019,3.475A2.435,2.435,0,0,1,39.5-26.6a1.79,1.79,0,0,1,.22.227,1.931,1.931,0,0,1,.252.415l.023.054.014.037c.055,0,.11,0,.165,0a2.224,2.224,0,0,1,.533.1,2.17,2.17,0,0,1,.281.113,3.488,3.488,0,0,1,1.513,1.7c.057.119.11.24.161.361l.03.075s.227.556.327.838a4.46,4.46,0,0,1,.246.768l-.636.2s-.337-.64-.853-.64h-3.71l-.64.986h2.222v1.63h1.429V-17.9H39.642l0,1.244H37.373l-.006.814-1.842,0,.009,9.253-7.822.008,0,3.631H25.94Z" transform="translate(0 48)" fill-rule="evenodd" fill="url(#linear-gradient)"/>
    <path id="Shape-2" data-name="Shape" d="M25.125-.8H22.875V-3.742H21.111V-6.581h1.768v1.628h2.243V-6.581h1.768v2.839H25.125Zm9.57-6.581H13.306v-8.9H34.694ZM31.172-8.45a.29.29,0,0,1-.011.148,1.058,1.058,0,0,1-.079.179.662.662,0,0,1-.146.182.159.159,0,0,1-.093.055.258.258,0,0,1-.1-.062Q30.68-8,30.611-8.055a1.05,1.05,0,0,1-.1-.086.111.111,0,0,1-.043-.069c.028-.059.05-.105.064-.137q.072-.152.107-.22.064-.1.129-.213l.043-.062a.29.29,0,0,0,.043.034l.057.034a1.363,1.363,0,0,1,.2.179.31.31,0,0,1,.064.144Zm-5.356-.992a4.87,4.87,0,0,0,.961-.093,5.923,5.923,0,0,0,.826-.224,2.86,2.86,0,0,0,.686-.358,2.7,2.7,0,0,0,.536-.488q.064-.083.2-.261c.043-.06.074-.1.093-.124s.024-.019.029-.014a.038.038,0,0,1,.007.027l-.007.076q-.007.062-.032.265a2.982,2.982,0,0,0-.025.358l0,0a1.323,1.323,0,0,0,.089.523.325.325,0,0,0,.325.206q.15,0,.293-.223a2.024,2.024,0,0,0,.236-.629l.018-.089a.485.485,0,0,0,.011-.083c0-.046-.012-.069-.036-.069s-.035.021-.046.062-.023.078-.032.11q-.078.213-.179.213a.39.39,0,0,1-.222-.062.445.445,0,0,1-.157-.392v-.1l0-.007q0-.124.022-.368.024-.271.064-.54l.15-.722q.01-.053.021-.106l.167-.113.668-.506q.287-.185.572-.374.247-.164.486-.338.386-.282.579-.43.257-.2.365-.288t.211-.193q.129-.123.247-.255a2.222,2.222,0,0,0,.193-.258.973.973,0,0,0,.136-.258.106.106,0,0,0,.014-.055q0,.012-.536.454-.279.236-.565.466-.307.244-.629.473-.456.318-.915.632a9.331,9.331,0,0,0-.847.678h0a.87.87,0,0,0-.165.19h0a.391.391,0,0,0-.024.037l0,0a1.627,1.627,0,0,0-.088.17l-.032.063a2.7,2.7,0,0,0-.157.351l-.1.392a1.7,1.7,0,0,1-.236.509,1.717,1.717,0,0,1-.55.474,4.394,4.394,0,0,1-1.916.543q-.243.021-.65.021a1.387,1.387,0,0,1-.936-.206.393.393,0,0,1-.1-.237c-.007-.09-.018-.134-.032-.134q-.057,0-.089.234a3.347,3.347,0,0,0-.032.454.581.581,0,0,0,.111.389.719.719,0,0,0,.418.182,2.936,2.936,0,0,0,.5.035ZM18.472-11.3a1.736,1.736,0,0,1-.036.275q-.036.192-.072.337l-.086.337c-.048.128-.086.222-.114.282a2.114,2.114,0,0,1-.118.213.513.513,0,0,1-.111.127,1.253,1.253,0,0,1-.193.113l-.257.1a1.421,1.421,0,0,1-.168.041,1.141,1.141,0,0,1-.168.028c-.024,0-.038-.008-.043-.024a.072.072,0,0,1,.014-.058A.73.73,0,0,1,17.3-9.7q.147-.11.29-.213.164-.145.243-.227a1.538,1.538,0,0,0,.214-.282.894.894,0,0,0,.061-.141q.039-.106.125-.347l.086-.248q.014-.055.043-.134c.019-.052.043-.079.072-.079a.149.149,0,0,1,.036.069Zm5.229.779,0,0v.006q.15-.147.178-.18a1.05,1.05,0,0,0,.179-.284,2.147,2.147,0,0,0,.125-.448,2.552,2.552,0,0,0,.053-.431q0-.18,0-.378t.025-.4c0-.125.007-.2.007-.234,0-.006,0-.012,0-.017.015-.008.034-.02.056-.034l.211-.144.511-.346q.3-.193.592-.39.256-.171.5-.354.4-.3.6-.452.268-.207.38-.3t.222-.206q.136-.131.261-.272a2.473,2.473,0,0,0,.207-.279,1.136,1.136,0,0,0,.15-.281.13.13,0,0,0,.017-.061q0,.014-.561.481-.292.25-.59.494-.32.258-.655.5-.473.333-.949.661a7.174,7.174,0,0,0-.7.529.954.954,0,0,0-.175.2,1.811,1.811,0,0,0-.127.233h0l-.012.028,0,.006h0l-.242.561a.5.5,0,0,0-.036.177q-.007.117-.007.271l.007.448a1.041,1.041,0,0,1-.071.428.667.667,0,0,1-.082.13.322.322,0,0,1-.082.077v0l0,0-.043.02a.209.209,0,0,1-.1-.013c-.024.036-.048.069-.072.1a.309.309,0,0,1-.15.107.072.072,0,0,1-.086-.013c-.033.031-.064.063-.093.094a.255.255,0,0,1-.172.08,1.249,1.249,0,0,1-.193-.014q-.158.107-.308.214a.506.506,0,0,1-.286.08.466.466,0,0,1-.429-.207.644.644,0,0,1-.078-.341c0-.054,0-.14.014-.261q.018-.215.05-.428l.122-.816.029-.174a.317.317,0,0,0,.007-.107l-.029.013q-.064.127-.171.374t-.114.274q-.05.328-.129.946t-.079.7h0a1.584,1.584,0,0,0,.014.184.741.741,0,0,0,.035.171.462.462,0,0,0,.451.354.57.57,0,0,0,.472-.294q.2-.294.322-.294l.1.01a.313.313,0,0,0,.082,0,.43.43,0,0,0,.139-.087,1.238,1.238,0,0,1,.129-.1.241.241,0,0,1,.1-.03.193.193,0,0,0,.086-.027c.038-.036.07-.064.1-.084a.362.362,0,0,1,.079-.047c.026-.011.08-.037.161-.077l.043-.034Zm-5.915-2.694a.05.05,0,0,0-.007-.045.146.146,0,0,0-.05-.039.812.812,0,0,0-.25.1,2.211,2.211,0,0,0-.265.159q-.136.094-.222.165a3.922,3.922,0,0,0-.365.369,2.473,2.473,0,0,0-.379.567,1.181,1.181,0,0,0-.136.476.3.3,0,0,0,.057.194.416.416,0,0,0,.164.117.547.547,0,0,0,.1.035q.043.01.143.039t.1.087a.434.434,0,0,1-.075.22,1.374,1.374,0,0,1-.218.262,1.238,1.238,0,0,1-.357.236,1.419,1.419,0,0,1-.593.13.946.946,0,0,1-.575-.152.487.487,0,0,1-.2-.411,2.144,2.144,0,0,1,.207-.739l.086-.181q.086-.181.129-.259c.052-.1.087-.17.1-.211s.039-.094.068-.159a.148.148,0,0,0,.014-.071c0-.039-.017-.058-.05-.058-.014,0-.032.017-.054.052s-.042.069-.061.1l-.164.318-.207.408a4,4,0,0,0-.222.525,2.236,2.236,0,0,0-.086.334,1.985,1.985,0,0,0-.029.34,1.065,1.065,0,0,0,.043.288.829.829,0,0,0,.15.288.782.782,0,0,0,.665.272,1.314,1.314,0,0,0,.693-.181,1.547,1.547,0,0,0,.293-.22,2.347,2.347,0,0,0,.236-.259,2.339,2.339,0,0,0,.322-.657,2.237,2.237,0,0,0,.122-.671.311.311,0,0,0-.114-.285.283.283,0,0,0-.075-.039l-.089-.032-.129-.059a.175.175,0,0,1-.05-.11.388.388,0,0,1,.1-.169,1.824,1.824,0,0,1,.289-.279,1.238,1.238,0,0,1,.293-.194.6.6,0,0,1,.229-.065.087.087,0,0,1,.046.016l.054.036c.029,0,.062-.026.1-.078.01-.013.037-.064.082-.152a2.253,2.253,0,0,0,.1-.207.839.839,0,0,0,.043-.152Zm2.985,2.778-.1.254a1.485,1.485,0,0,1-.154.258.688.688,0,0,1-.146.158,1.105,1.105,0,0,1-.214.093l-.15.055q-.115.036-.229.076a.992.992,0,0,1-.229.048l-.029-.014q0-.048.257-.206l.279-.192q.071-.048.157-.117A1.772,1.772,0,0,0,20.4-10.2a.576.576,0,0,0,.132-.213.18.18,0,0,1,.007-.041l-.186.014a.3.3,0,0,1-.214-.079.193.193,0,0,1-.072-.175.594.594,0,0,1,.036-.131c.019-.05.062-.142.129-.275a1.565,1.565,0,0,1,.129-.22c.062-.083.122-.124.179-.124a.33.33,0,0,1,.25.117.4.4,0,0,1,.107.282.977.977,0,0,1-.014.165l-.025.144c-.007.041-.018.091-.032.148a.837.837,0,0,1-.05.148Zm-1.077-.917a1.749,1.749,0,0,1-.036.275q-.036.192-.072.337L19.5-10.4q-.072.193-.114.282a2.133,2.133,0,0,1-.118.213.526.526,0,0,1-.111.127,1.271,1.271,0,0,1-.193.113l-.257.1a1.421,1.421,0,0,1-.168.041,1.135,1.135,0,0,1-.168.028c-.024,0-.038-.008-.043-.024a.072.072,0,0,1,.014-.058.723.723,0,0,1,.182-.172q.147-.11.29-.213.164-.144.243-.227a1.539,1.539,0,0,0,.214-.282.9.9,0,0,0,.061-.141q.039-.107.125-.347l.086-.248c.01-.037.024-.081.043-.134s.043-.079.072-.079A.151.151,0,0,1,19.694-11.354Zm11.07.544c0-.055,0-.144.014-.268q.018-.221.05-.44l.122-.839.029-.179a.323.323,0,0,0,.007-.11l-.029.014q-.064.131-.172.385t-.114.282q-.05.337-.129.973t-.079.716v0a1.323,1.323,0,0,0,.089.523.325.325,0,0,0,.325.206q.15,0,.293-.223a2.024,2.024,0,0,0,.236-.629l.018-.089a.485.485,0,0,0,.011-.083c0-.046-.012-.069-.036-.069s-.034.021-.046.062l-.032.11q-.079.213-.179.213a.39.39,0,0,1-.222-.062.445.445,0,0,1-.157-.392v-.1ZM18.8-12.857a.291.291,0,0,1-.011.148,1.078,1.078,0,0,1-.079.179.661.661,0,0,1-.146.182.158.158,0,0,1-.093.055.254.254,0,0,1-.1-.062q-.066-.055-.136-.107a1.036,1.036,0,0,1-.1-.086.111.111,0,0,1-.043-.069q.043-.089.064-.137c.048-.1.083-.174.107-.22.043-.069.086-.14.129-.213l.043-.062a.3.3,0,0,0,.043.035l.057.034a1.344,1.344,0,0,1,.2.179A.31.31,0,0,1,18.8-12.857Zm3.747-.914a.311.311,0,0,0-.064-.144,1.35,1.35,0,0,0-.2-.179l-.057-.034a.277.277,0,0,1-.043-.034l-.043.062q-.064.11-.129.213-.036.069-.107.22c-.014.032-.036.078-.064.137a.112.112,0,0,0,.043.069,1.053,1.053,0,0,0,.1.086q.069.051.136.106a.25.25,0,0,0,.1.062.157.157,0,0,0,.093-.055.666.666,0,0,0,.147-.182,1.065,1.065,0,0,0,.079-.179.29.29,0,0,0,.011-.148Zm.736-.041a.291.291,0,0,1-.011.148,1.066,1.066,0,0,1-.079.179.655.655,0,0,1-.146.182.157.157,0,0,1-.093.055.257.257,0,0,1-.1-.062q-.066-.055-.136-.107a1.038,1.038,0,0,1-.1-.086.112.112,0,0,1-.043-.069c.029-.059.05-.106.064-.137q.052-.111.107-.22t.129-.213l.043-.062a.264.264,0,0,0,.043.034l.057.035a1.357,1.357,0,0,1,.2.179A.312.312,0,0,1,23.284-13.812Zm6.567-.051a.293.293,0,0,1-.011.148,1.058,1.058,0,0,1-.079.179.665.665,0,0,1-.146.182.158.158,0,0,1-.093.055.256.256,0,0,1-.1-.062q-.066-.055-.136-.107a.992.992,0,0,1-.1-.086.111.111,0,0,1-.043-.069q.043-.089.064-.137c.048-.1.083-.174.107-.22.043-.069.086-.14.129-.213l.043-.062a.291.291,0,0,0,.043.035l.057.034a1.327,1.327,0,0,1,.2.179A.308.308,0,0,1,29.851-13.863Zm-6.939-.8a.311.311,0,0,0-.065-.144,1.311,1.311,0,0,0-.2-.179l-.057-.034a.269.269,0,0,1-.043-.034l-.043.062c-.043.073-.086.144-.129.213-.024.046-.06.119-.107.22-.014.032-.036.078-.065.137a.111.111,0,0,0,.043.069c.029.028.063.057.1.09l.136.107a.255.255,0,0,0,.1.058.158.158,0,0,0,.093-.055.661.661,0,0,0,.146-.182,1.074,1.074,0,0,0,.079-.179.292.292,0,0,0,.011-.148ZM19.544-39.151l1.271,2.2v10.431L23.6-24.494v7.417H20.357v-6.832l-3.2-3.2v-7.711l-1.87-3.239-1.708,0,1.1-1.1ZM16.761-26.373l2.8,2.8v6.5H16.931l-3.959-6.088H6.047c.552-1.437,1.46-2.3,2.6-1.725.012-.914.342-1.483,1.884-1.483Zm-4.224,4.008,3.439,5.288H14.34l-3.431-5.288Zm15.106,5.288H24.4v-7.417l2.785-2.025V-36.95l1.271-2.2h4.862l1.1,1.1-1.708,0-1.87,3.239V-27.1l-3.2,3.2Zm7.385-6.088-3.959,6.088H28.443v-6.5l2.8-2.8h6.227c1.542,0,1.873.569,1.884,1.483,1.143-.578,2.051.288,2.6,1.725Zm-3,6.088,3.439-5.288h1.629L33.66-17.077ZM12.458-18.508H10.534v-.91h1.333Zm25.009,0H35.542l.591-.91h1.333ZM25.079-44.6H27.9l.009,4.8-1.524,2.64v10.237L24.4-25.483v-2.374l.712-.518V-43.164H22.888v14.788l.712.518v2.374l-1.985-1.444V-37.164L20.091-39.8l.009-4.8h2.821v-2.6h2.159ZM13.942-27.173h.8v-2.385h-.8Zm1.62,0h.8V-34.6l-1.532-2.654h-.907l1.639,2.839Zm17.7,0h.8v-2.385h-.8Zm-.82,0h-.8V-34.6l1.532-2.654h.907l-1.639,2.839Z" transform="translate(0 48)" fill="#1f261a" fill-rule="evenodd"/>
  </g>
</svg>
