<svg xmlns="http://www.w3.org/2000/svg" xmlns:xlink="http://www.w3.org/1999/xlink" width="48" height="48" viewBox="0 0 48 48">
  <defs>
    <clipPath id="clip-path">
      <rect width="48" height="48" fill="none"/>
    </clipPath>
    <radialGradient id="radial-gradient" cx="0.391" cy="0.336" r="0.636" gradientTransform="matrix(0.815, -0.513, 0.58, 0.722, -0.123, 0.294)" gradientUnits="objectBoundingBox">
      <stop offset="0" stop-color="#ec008c" stop-opacity="0.408"/>
      <stop offset="1" stop-color="#621a4f"/>
    </radialGradient>
    <radialGradient id="radial-gradient-2" cx="0.803" cy="0.528" r="1.105" gradientTransform="matrix(-0.095, -0.426, 0.996, -0.04, 0.353, 0.892)" xlink:href="#radial-gradient"/>
    <radialGradient id="radial-gradient-3" cx="0.407" cy="0.846" r="0.957" gradientTransform="matrix(0.424, 0.416, -0.194, 0.909, 0.398, -0.093)" xlink:href="#radial-gradient"/>
    <radialGradient id="radial-gradient-4" cx="0.728" cy="0.762" r="0.733" gradientUnits="objectBoundingBox">
      <stop offset="0" stop-color="#ffe293"/>
      <stop offset="1" stop-color="#faa61a"/>
    </radialGradient>
  </defs>
  <g id="Bank-Kosar" clip-path="url(#clip-path)">
    <rect id="Boundary" width="48" height="48" fill="none"/>
    <path id="Shape" d="M37.174,37.706A17.782,17.782,0,0,1,8.252,31.281a.437.437,0,0,0-.7-.165L.142,37.877a.435.435,0,0,0-.021.622,25.214,25.214,0,0,0,38-1.592.062.062,0,0,0-.1-.08Q37.617,37.272,37.174,37.706ZM27.748,14.213a17.781,17.781,0,0,1,8.891,28.26.436.436,0,0,0,.207.69l9.56,3.034a.438.438,0,0,0,.55-.292A25.22,25.22,0,0,0,26.577,13.792a.062.062,0,0,0-.072.061.064.064,0,0,0,.049.062Q27.155,14.041,27.748,14.213ZM12.117,34.124A17.782,17.782,0,0,1,32.14,12.293a.432.432,0,0,0,.064,0,.441.441,0,0,0,.431-.53L30.483,1.973a.438.438,0,0,0-.529-.33,25.212,25.212,0,0,0-17.621,33.7.064.064,0,0,0,.074.038.062.062,0,0,0,.046-.059.06.06,0,0,0,0-.021C12.327,34.916,12.215,34.52,12.117,34.124Z" transform="translate(0 0.37)" fill="#832d6a" fill-rule="evenodd"/>
    <path id="Shape-2" data-name="Shape" d="M31.812,11.211l-1.89-8.594a.241.241,0,0,0-.112-.159.237.237,0,0,0-.193-.028A24.586,24.586,0,0,0,11.29,25.54a.062.062,0,0,0,.055.063.06.06,0,0,0,.068-.047A18.551,18.551,0,0,1,31.539,11.514l.029,0a.25.25,0,0,0,.244-.3Z" transform="translate(0 0.37)" fill="url(#radial-gradient)"/>
    <path id="Shape-3" data-name="Shape" d="M37.742,42.727l8.387,2.661a.249.249,0,0,0,.075.012.253.253,0,0,0,.242-.183A24.594,24.594,0,0,0,35.6,17.8a.064.064,0,0,0-.076.1,18.555,18.555,0,0,1,2.1,24.452.242.242,0,0,0,.125.379Z" transform="translate(0 0.37)" fill="url(#radial-gradient-2)"/>
    <path id="Shape-4" data-name="Shape" d="M7.486,32.1l-6.5,5.927a.239.239,0,0,0-.083.178.255.255,0,0,0,.072.182,24.594,24.594,0,0,0,29.179,4.316.063.063,0,0,0-.046-.116A18.553,18.553,0,0,1,7.881,32.183a.24.24,0,0,0-.176-.144A.233.233,0,0,0,7.486,32.1Z" transform="translate(0 0.37)" fill="url(#radial-gradient-3)"/>
    <path id="Shape-5" data-name="Shape" d="M24.264,20A8.793,8.793,0,1,1,17,30.1,8.8,8.8,0,0,1,24.264,20Z" transform="translate(0 0.37)" fill="#faa61a" fill-rule="evenodd"/>
    <path id="Shape-6" data-name="Shape" d="M18.061-25.863a8.124,8.124,0,0,0,10.431,4.8,8.124,8.124,0,0,0,4.8-10.431,8.124,8.124,0,0,0-10.431-4.8A8.124,8.124,0,0,0,18.061-25.863Z" transform="translate(51.355 0.37) rotate(180)" fill-rule="evenodd" fill="url(#radial-gradient-4)"/>
  </g>
</svg>
