<svg xmlns="http://www.w3.org/2000/svg" xmlns:xlink="http://www.w3.org/1999/xlink" width="48" height="48" viewBox="0 0 48 48">
  <defs>
    <clipPath id="clip-path">
      <rect width="48" height="48" fill="none"/>
    </clipPath>
  </defs>
  <g id="Bank-Melall" clip-path="url(#clip-path)">
    <rect id="Boundary" width="48" height="48" fill="none"/>
    <path id="Shape" d="M10.764,30a4.687,4.687,0,0,1-3.312-1.383,3.521,3.521,0,0,1-1.1-1.931,3.241,3.241,0,0,1,.511-2.1,13.063,13.063,0,0,1,1.292-2,.539.539,0,0,1,.248-.06,1.426,1.426,0,0,1,.786.36A10.074,10.074,0,0,0,13.6,24.7c.648.1.913.292.914.647a27.4,27.4,0,0,1-.782,2.993A3.113,3.113,0,0,1,10.764,30Zm8.454,0h0a3.251,3.251,0,0,1-2.351-.9c-.535-.53-.642-.771-1.037-2.336-.258-1.02-.374-1.521-.208-1.77.127-.19.421-.243.89-.312A10.055,10.055,0,0,0,20.953,22.8a1.091,1.091,0,0,1,.627-.283c.221,0,.409.14.607.456,1.2,1.9,1.491,2.552,1.489,3.309a3.41,3.41,0,0,1-1.435,2.658A5.01,5.01,0,0,1,19.218,30Zm7.243-6.3a5.416,5.416,0,0,1-2.627-1.008c-.9-.536-1.269-.781-1.325-1.056-.043-.209.114-.444.358-.778a10,10,0,0,0,1.856-4.53c.068-.48.171-.663.44-.779a1.283,1.283,0,0,1,.192-.073c.156,0,2.778.7,3.016.807a2.818,2.818,0,0,1,1.57,2.21,4.744,4.744,0,0,1-1.386,4.128A3.013,3.013,0,0,1,26.461,23.7ZM3.74,23.674A3.956,3.956,0,0,1,.374,21.01,3.808,3.808,0,0,1,.938,16.83c.52-.522.693-.6,2.313-1.016a6.9,6.9,0,0,1,1.432-.281c.461,0,.543.255.62.836a10.026,10.026,0,0,0,1.829,4.455c.4.531.456.822.232,1.11A20.425,20.425,0,0,1,4.673,23.51,2.763,2.763,0,0,1,3.74,23.674Zm.947-9.223a7.375,7.375,0,0,1-1.511-.3C1.383,13.7.805,13.342.366,12.412A4.415,4.415,0,0,1,.429,8.878,4.218,4.218,0,0,1,2.839,6.449,2.557,2.557,0,0,1,3.7,6.285,5.243,5.243,0,0,1,6.241,7.338c.857.512,1.211.748,1.266,1.02.043.218-.119.459-.372.8a9.915,9.915,0,0,0-1.83,4.434C5.224,14.2,5.144,14.45,4.686,14.45Zm20.643,0c-.445,0-.525-.239-.611-.825a9.976,9.976,0,0,0-1.844-4.475c-.276-.373-.4-.586-.36-.785.055-.276.428-.525,1.267-1.026a6.686,6.686,0,0,1,1.859-.949,2.715,2.715,0,0,1,.653-.08,3.441,3.441,0,0,1,2.618,1.4,4.849,4.849,0,0,1,.966,4.044c-.3,1.346-.981,1.886-3.046,2.4A7.654,7.654,0,0,1,25.33,14.449ZM8.452,7.5c-.284,0-.529-.327-1.077-1.247-1-1.679-1.049-1.806-1.007-2.715a2.746,2.746,0,0,1,.908-1.972A4.325,4.325,0,0,1,10.039.05,5.806,5.806,0,0,1,10.765,0a3.243,3.243,0,0,1,2.4.914c.546.554.633.75,1.026,2.333.264,1.061.364,1.5.2,1.743-.126.189-.409.243-.941.328a9.9,9.9,0,0,0-3.848,1.5l-.473.324-.005,0L8.919,7.3A.93.93,0,0,1,8.452,7.5ZM21.593,7.47a1.127,1.127,0,0,1-.645-.274,9.871,9.871,0,0,0-4.383-1.877c-.516-.083-.814-.139-.944-.338-.168-.258-.052-.745.227-1.824C16.419.945,17.04.249,18.616.053A5.716,5.716,0,0,1,19.3.011a4.525,4.525,0,0,1,3.943,2.2c.8,1.241.527,2.444-1.129,4.949A.613.613,0,0,1,21.593,7.47Z" transform="translate(9 9)" fill="#ff7f31"/>
    <path id="Shape-2" data-name="Shape" d="M11.885,37.506a18,18,0,0,0,24.229,0,12.24,12.24,0,0,1-24.229,0ZM42.089,24a18.186,18.186,0,0,0-4.6-12.118,12.24,12.24,0,0,1,0,24.234A18.183,18.183,0,0,0,42.089,24ZM0,24A12.249,12.249,0,0,1,10.511,11.883a18.26,18.26,0,0,0,0,24.234A12.248,12.248,0,0,1,0,24Zm24.046,9A9.274,9.274,0,0,1,18.8,31.374a8.8,8.8,0,0,1-3.409-4.719A9.029,9.029,0,0,1,16.6,18.887a8.8,8.8,0,0,1,6.616-3.859c.229-.018.472-.027.726-.027a8.983,8.983,0,0,1,7.91,4.657,8.9,8.9,0,0,1-.242,9.139,8.776,8.776,0,0,1-3.363,3.172A9.078,9.078,0,0,1,24.047,33Zm-2.488-4.213c-.014.023.013.1.082.221a9.769,9.769,0,0,0,1.625,2.056.018.018,0,0,0,.01,0,18.208,18.208,0,0,0,.014-2.235,4.457,4.457,0,0,0-1.126-.086A1.788,1.788,0,0,0,21.559,28.787Zm6.115.246a11.145,11.145,0,0,1-.952,1.571c-.178.248-.265.382-.242.427q.008.016.038.016a2.7,2.7,0,0,0,.661-.274,8.119,8.119,0,0,0,2.539-1.918.072.072,0,0,0,0-.056,3.911,3.911,0,0,0-.971-.052H27.8Zm-9.38-.217a8.386,8.386,0,0,0,2.86,2.125c.01,0,.016,0,.019-.009.02-.036-.071-.19-.421-.715-.248-.379-.533-.852-.634-1.056l-.2-.414H19.1C18.453,28.748,18.293,28.761,18.293,28.816Zm6.419.952c0,.771.013.995.056.995l.006,0a10.015,10.015,0,0,0,1.4-1.935.052.052,0,0,0,0-.036,3.526,3.526,0,0,0-.744-.042h-.718Zm-4.4-5.059a8.762,8.762,0,0,0,.4,2.229l.127.416,1.229-.014,1.229-.014.014-1.221c.007-.661,0-1.26-.014-1.333l-.028-.112H21.8A10.186,10.186,0,0,0,20.309,24.71Zm8.565-.011a2.368,2.368,0,0,0-.057.361,15.268,15.268,0,0,1-.328,1.878c-.051.177-.1.357-.1.377a9.049,9.049,0,0,0,1.165.038h1.165l.178-.427a7.568,7.568,0,0,0,.54-2.2,11.131,11.131,0,0,0-1.6-.067A5.809,5.809,0,0,0,28.875,24.7Zm-4.129-.005c-.018.019-.033.624-.033,1.347v1.312h2.176l.158-.545a8.841,8.841,0,0,0,.362-1.8l.014-.324L26.1,24.674l-.486,0A7.807,7.807,0,0,0,24.746,24.693Zm-8.159,0a5.2,5.2,0,0,0,.54,2.3l.166.362h1.023a7,7,0,0,0,1.023-.038c0-.026-.088-.382-.117-.5l-.008-.031-.017-.07,0-.014a13.863,13.863,0,0,1-.313-1.84l-.014-.175-1.123-.013-.424,0A5.6,5.6,0,0,0,16.586,24.693Zm4.359-4.228a8.734,8.734,0,0,0-.636,2.8,6.05,6.05,0,0,0,1.163.057,10.506,10.506,0,0,0,1.817-.086c.016-.044.031-.683.031-1.366s-.014-1.322-.031-1.367a7.472,7.472,0,0,0-1.492-.086A3.738,3.738,0,0,0,20.945,20.465Zm-3.74.346a6.423,6.423,0,0,0-.639,2.42c.023.061.1.077.555.077.127,0,.292,0,.517,0h.092l1.131-.013.059-.524a10.164,10.164,0,0,1,.35-1.778,1.739,1.739,0,0,0,.1-.5c-.022-.055-.218-.068-1-.068H17.4Zm7.529-.324c-.014.04-.019.723-.011,1.434l.013,1.37,1.333.013c.294,0,.5,0,.661,0,.58,0,.681-.019.7-.064a9.833,9.833,0,0,0-.568-2.62l-.085-.174-1.009-.014c-.119,0-.25,0-.454,0h0C24.9,20.434,24.75,20.448,24.735,20.488Zm3.625.074c.017.084.091.387.155.636a14.445,14.445,0,0,1,.315,1.795l.037.3h2.587l-.016-.2a7.82,7.82,0,0,0-.644-2.268l-.184-.373-2.276-.027Zm-6.642-1.7c-.055.1-.076.156-.064.175a1.73,1.73,0,0,0,.622.053A3.6,3.6,0,0,0,23.288,19c.016-.044.031-.544.031-1.068a5.771,5.771,0,0,0-.047-1.019l-.008,0A9.71,9.71,0,0,0,21.718,18.859Zm4.759-1.912c-.025.05.094.22.311.529l.017.024c.217.31.518.789.671,1.068l.281.511h.887a3.239,3.239,0,0,0,.921-.055.057.057,0,0,0,0-.047,7.651,7.651,0,0,0-2.345-1.768l-.031-.014a3.071,3.071,0,0,0-.677-.266A.04.04,0,0,0,26.477,16.947Zm-5.93.383A7.6,7.6,0,0,0,18.419,19a.048.048,0,0,0,0,.038,3.7,3.7,0,0,0,.795.045h.768l.181-.362a13.541,13.541,0,0,1,.947-1.486.277.277,0,0,0,.067-.138c0-.024,0-.049-.031-.049A2.777,2.777,0,0,0,20.547,17.33Zm4.213-.087c-.049.049-.046.281-.038.787v.09l.013.934.643.014.186,0a1.95,1.95,0,0,0,.5-.033,7.005,7.005,0,0,0-.991-1.5l-.031-.039c-.134-.164-.215-.262-.263-.262A.031.031,0,0,0,24.76,17.243ZM24,5.807a17.964,17.964,0,0,0-12.115,4.687,12.24,12.24,0,0,1,24.229,0A17.964,17.964,0,0,0,24,5.807Z" fill="#37389a"/>
  </g>
</svg>
