<svg xmlns="http://www.w3.org/2000/svg" xmlns:xlink="http://www.w3.org/1999/xlink" width="48" height="48" viewBox="0 0 48 48">
  <defs>
    <clipPath id="clip-path">
      <rect width="48" height="48" fill="none"/>
    </clipPath>
  </defs>
  <g id="Bank-Noor" clip-path="url(#clip-path)">
    <rect id="Boundary" width="48" height="48" fill="none"/>
    <path id="Shape" d="M29.387,27H16.681a.979.979,0,0,1-.7-.289.992.992,0,0,1-.288-.7V24.843a.985.985,0,0,1,.985-.986H29.387a.985.985,0,0,1,.985.986v1.172a.985.985,0,0,1-.985.986Zm.716-4.47v0A75.842,75.842,0,0,0,23.479,9.994l.005-.007c.485-.54,4.861-5.345,9.022-7.683C36.075.3,40.909,0,43.474,0c1.235,0,2.021.068,2.027.068a19.385,19.385,0,0,0-3.574,1.623,19.423,19.423,0,0,0-6.385,5.741c-.941,1.379-2.388,4.107-3.938,9.274-.961,3.206-1.5,5.8-1.5,5.82Zm-1.81-.11H15.727a15.169,15.169,0,0,1-2.394-5.485c-.941-4.64-2.148-7.93-3.589-9.777C6.456,2.947.064.276,0,.249c0,0,.008,0,.021,0a20.3,20.3,0,0,1,2.8-.176c4,0,11.476.972,16.639,7.481,3.575,4.506,8.777,14.767,8.828,14.869Z" transform="translate(1.25 21)" fill="#002263"/>
    <path id="Shape-2" data-name="Shape" d="M20,27a6.114,6.114,0,1,1,6.016-6.114A6.072,6.072,0,0,1,20,27Zm-8.1-7.672c-2.725,0-7.653-.1-10.05-.748a2.537,2.537,0,0,1-1.767-3.1A2.507,2.507,0,0,1,2.5,13.6a2.417,2.417,0,0,1,.648.086,27.912,27.912,0,0,1,4.972,2.165c1.8.94,3.579,1.967,4.753,2.664a8.323,8.323,0,0,0-.212.806h-.11Zm16.276,0h-.1l-.737,0a6.871,6.871,0,0,0-.212-.806c2.032-1.21,7.046-4.1,9.724-4.829A2.385,2.385,0,0,1,37.5,13.6h.025a2.535,2.535,0,0,1,.624,4.976C35.768,19.228,30.88,19.327,28.178,19.327ZM13.54,17.015h0c-2.788-.939-7.794-2.736-9.991-4.223a2.555,2.555,0,0,1-.689-3.511,2.478,2.478,0,0,1,3.466-.7c2.2,1.491,5.753,5.487,7.673,7.736a7.265,7.265,0,0,0-.458.695Zm12.882-.066h0a7.831,7.831,0,0,0-.463-.69c1.544-1.818,5.381-6.209,7.66-7.76a2.465,2.465,0,0,1,1.391-.429,2.49,2.49,0,0,1,2.077,1.12A2.555,2.555,0,0,1,36.4,12.7c-2.2,1.494-7.2,3.3-9.983,4.247ZM15.124,15.1h0C13.245,13.647,8.7,10.036,7.03,7.823A2.556,2.556,0,0,1,7.5,4.275a2.478,2.478,0,0,1,3.5.479c1.6,2.12,3.679,7.07,4.777,9.832a7.8,7.8,0,0,0-.657.511Zm9.711-.036h0a8.147,8.147,0,0,0-.651-.5c1.1-2.769,3.192-7.729,4.792-9.853a2.477,2.477,0,0,1,3.5-.476,2.555,2.555,0,0,1,.47,3.548c-1.6,2.13-5.771,5.476-8.113,7.281ZM22.79,13.811h0A7.705,7.705,0,0,0,22,13.539c.132-2.39.536-8.23,1.409-10.857A2.5,2.5,0,0,1,25.777.958a2.46,2.46,0,0,1,.8.132A2.543,2.543,0,0,1,28.145,4.3c-.841,2.532-3.715,7.047-5.354,9.513h0Zm-5.58,0h0C15.567,11.34,12.69,6.819,11.852,4.3a2.544,2.544,0,0,1,1.571-3.207,2.449,2.449,0,0,1,.8-.132,2.5,2.5,0,0,1,2.37,1.724C17.43,5.215,17.833,10.572,18,13.54a7.354,7.354,0,0,0-.789.271Zm2.372-.534h0C18.8,10.408,17.5,5.2,17.5,2.532a2.5,2.5,0,1,1,5,0c0,2.671-1.3,7.878-2.081,10.744-.133-.007-.273-.011-.418-.011s-.285,0-.418.012Z" transform="translate(4)" fill="#0bbbb9"/>
  </g>
</svg>
