<svg xmlns="http://www.w3.org/2000/svg" xmlns:xlink="http://www.w3.org/1999/xlink" width="48" height="48" viewBox="0 0 48 48">
  <defs>
    <clipPath id="clip-path">
      <rect width="48" height="48" fill="none"/>
    </clipPath>
  </defs>
  <g id="Bank-Pasargad" clip-path="url(#clip-path)">
    <rect id="Boundary" width="48" height="48" fill="none"/>
    <path id="Shape" d="M0,0H42V-.443H0ZM0-.64H42V-1.694H0ZM25.071-36.45l-3,19S21.861-14.1,23.594-12.2a9.738,9.738,0,0,0,2.817,1.72,3.747,3.747,0,0,1,1.946,2.4c.232,1.636-1.5,1.855-2.421,1.506a6.237,6.237,0,0,0-2.7-.465A2.464,2.464,0,0,0,20.57-4.8a3.068,3.068,0,0,0,1.88,2.689s-1.828.01-3.246.023C10.86-2.008,8-7.732,6.936-14.337L3.368-36.45ZM39.411-2.128H24.823s-3.112-.06-3.074-2.281c.031-1.8,2.011-2.38,4.331-1.6a21.641,21.641,0,0,0,2.88.376c1.258.164,2.76-.059,4.653.773a4.577,4.577,0,0,0,.89.009c.364.011.793.109.89.076.546-.187.825-.477,1.359-.466a.769.769,0,0,1,.513.329.659.659,0,0,1,.445-.223c.453,0,.63.669.912,1.089a2.4,2.4,0,0,1,1.462,1.605c.025.1-.232.237-.311.172A29.973,29.973,0,0,0,37.7-4.524c-.1,0,.154.522.206.7-.4-.254-1.107-1.242-1.392-.953-.351.357.874,1.218.362,1.393-.277.094-.874-.467-1.595-.7-.6-.191-1.81-.08-1.979-.184-1.374-.846-4.816-.726-7.349-.92-.431-.033-.939-.289-1.565-.343-.842-.073-1.714.226-1.7,1.211a1.648,1.648,0,0,0,1.773,1.46c3.249.1,8.741-.045,8.741-.045l-.7-.511s-6.258-.04-7.679-.1a.842.842,0,0,1-.762-.963c.158-.481.915-.345.915-.345s.812.1,1.229.122a38.456,38.456,0,0,1,6.536.846c.476.141,1.322.085,1.905.191a4.395,4.395,0,0,1,2.307,1.052l.631,0a1.862,1.862,0,0,1-.013-.7c.084-.131.222-.093.372-.038s.3.26.423.294.164-.132.3-.105c.279.056.5.427.658.679A1.033,1.033,0,0,1,39.411-2.128ZM18.066-5.5a.883.883,0,0,0,.554,1.183L15.8-3.492a.706.706,0,0,1-.876-.48h0a.584.584,0,0,1,.4-.724ZM20.537-6.2c-.063.522-.149.979-.222,1.4l-1.147.335c-.337-.066-.687-.229-.738-.616a.664.664,0,0,1,.323-.608ZM18.083-7.1c-.367.5-.191.96.428,1.22l-2.809.82a.706.706,0,0,1-.876-.48h0a.584.584,0,0,1,.4-.724Zm10.6-17.971A11.945,11.945,0,0,0,24.226-20.5c-.061.121-.2.388-.31.593a13.4,13.4,0,0,0-.7,1.642,11.73,11.73,0,0,0-.4,1.645,4.476,4.476,0,0,0,.718,3.817c.557.63,1.009.891,2.968,1.72a8.893,8.893,0,0,1,.865.431A3.361,3.361,0,0,1,28.929-6.43c-.1.256-.153.267,1.166.377a11.515,11.515,0,0,1,3.07.529c-.172-2.18-.6-8.06-.749-9.416-.02-.184-.116-.208-.217-.21a3.166,3.166,0,0,1-1.267-.2,1.837,1.837,0,0,1,.528-.456l-.653-.027c-.959-.095-1.183-.532-.294-.988,0,0-1.238.149-1.236-.907,0-.2.028-.277.207-.231s.561.036.559-.011c0-.111-.233-.165-.352-.212a.815.815,0,0,1-.484-.558c-.081-.243.02-.3.378-.464.478-.216.494-.413.077-.413-.868,0-.855-1.346-.05-2.046.4-.35.429-.469.153-.559a1.7,1.7,0,0,1-.954-1.468c.042-.932,2.16-1.421,2.5-.568.091.225.489.269.479-.013-.005-.144.262-.4.571-.526.136-.058-.227-.3-.491-.426a4.034,4.034,0,0,0-2.084-.155A3.662,3.662,0,0,0,28.683-25.068ZM20.619-7.837a11.307,11.307,0,0,1-.052,1.36l-1.451.424c-.763-.089-1.029-.609-.607-1.168ZM21.1-6.475a16.151,16.151,0,0,0-1.046-6.6c-1.371-2.9-4.494-6-6.287-8.046a2.028,2.028,0,0,1-.405-1.237c.164-1.917,2.883-1.473,2.883-1.473a4.955,4.955,0,0,0,.187.91c.9,2.244,3.672,5.032,4.985,7.623a55.139,55.139,0,0,1,2.759,7.988C22.667-7.493,21.629-7.226,21.1-6.475ZM17.827-8.623a.889.889,0,0,0,.505,1.2l-2.8.818a.706.706,0,0,1-.876-.48h0a.584.584,0,0,1,.4-.724ZM20.484-9.4a12.578,12.578,0,0,1,.127,1.308l-1.528.446a.931.931,0,0,1-.745-.307.637.637,0,0,1,.136-.86Zm-2.99-.718a.789.789,0,0,0,.5,1.2l-2.868.837a.706.706,0,0,1-.537-.059.706.706,0,0,1-.339-.421h0a.584.584,0,0,1,.4-.724Zm2.688-.785c.113.449.2.871.266,1.267l-1.853.541c-.741-.064-.909-.512-.661-1.152Zm-3.2-.66c-.223.837.171,1.03.623,1.163l-2.93.855a.706.706,0,0,1-.876-.48h0a.584.584,0,0,1,.4-.724Zm2.771-.809c.145.434.268.845.371,1.236l-2.1.614a.946.946,0,0,1-.64-.6.611.611,0,0,1,.159-.6Zm-3.377-.562a.76.76,0,0,0,.554,1.136l-2.9.847a.7.7,0,0,1-.534-.058.7.7,0,0,1-.337-.419h0a.58.58,0,0,1,.05-.444.579.579,0,0,1,.351-.277Zm2.773-.85a7.994,7.994,0,0,1,.527,1.184l-2.242.654a.751.751,0,0,1-.726-.62.652.652,0,0,1,.188-.525Zm-3.593-.475a.785.785,0,0,0,.6,1.092l-2.918.852a.678.678,0,0,1-.839-.454h0a.557.557,0,0,1,.044-.429.557.557,0,0,1,.337-.269Zm2.742-.862A12.444,12.444,0,0,1,19.022-14l-2.345.685a.768.768,0,0,1-.69-1.071Zm-3.89-.395c.171.641.371.968.629,1.08l-2.728.8a.668.668,0,0,1-.509-.056.668.668,0,0,1-.32-.4h0a.544.544,0,0,1,.045-.414.543.543,0,0,1,.324-.261Zm2.9-.847c.286.334.564.675.826,1.023l-2.469.721a.748.748,0,0,1-.558-1.1Zm-4.056-.39a.778.778,0,0,1,.136.079c.279.216-.09.609.727.946l-2.9.846a.674.674,0,0,1-.836-.458h0a.551.551,0,0,1,.046-.419.55.55,0,0,1,.329-.264Zm17.039-3.226c.183-.035.184.24.019.66-.177.453-.771.5-.715.588.245.4,1.024.242,1.234.31.152.049-.082.581-.579.907-.364.239-.243.351.236.385.22.016.529-.2.823-.2.1,0,.081.556-.219.782-.7.531-.131.509.748.261.491-.138.4.015.215.373-.114.217-.345.329-.276.4A1.2,1.2,0,0,0,33.153-16c.1-.129.129-.316-.144-.52a4.517,4.517,0,0,1-1.674-2.866,11.243,11.243,0,0,1-.078-2.555c.055-.242-.008-.235-.615.072C29.177-21.127,28.927-19.715,30.291-19.977ZM34.286-19c-2.025.018-2.559,1.362-1,2.31.245.149.192.194.192.4a.547.547,0,0,0,.526.493c.534.047.826-.148.925-.813a1.835,1.835,0,0,1,.472-.941c.157-.212.229-.349.187-.365-.078-.029-.284.019-.446.294a1.363,1.363,0,0,1-2.257.043c-.218-.464.17-1.1,1.571-1.1.987,0,1.023.036,1.114.369.073.266.243.158.6-.382.589-.89.512-1.044-.09-.716A3.464,3.464,0,0,1,34.286-19Zm-18.1,1.4c.307.328.616.664.918,1.009l-2.389.7a1.1,1.1,0,0,1-.613-.41.568.568,0,0,1,.074-.71ZM12.5-18.1c-.158.592.014.856.594,1.044l-2.91.849a.669.669,0,0,1-.509-.056.67.67,0,0,1-.321-.4h0a.547.547,0,0,1,.048-.421.547.547,0,0,1,.334-.261Zm2.489-.767c.3.319.614.647.932.985L13.6-17.2a.674.674,0,0,1-.519-1.072Zm-3.646-.479c-.044.663.391.879.841.96L9.2-17.516a.763.763,0,0,1-.939-.494l-.047-.143a.433.433,0,0,1,.035-.349.433.433,0,0,1,.281-.209Zm22.476,1.2a1.315,1.315,0,0,1,1.106.405c.035.036.077-.085.1-.141.06-.127.177-.26.055-.347a2.113,2.113,0,0,0-1.463-.051C33.3-18.187,33.444-18.148,33.82-18.15ZM13.88-20.11c.259.314.55.64.862.976l-2.063.6a.861.861,0,0,1-.893-1.044l.282-.174Zm-3.38-.57a1.363,1.363,0,0,0,.718.914l-3.125.78a.571.571,0,0,1-.622-.25l-.281-.447a.456.456,0,0,1-.024-.443.456.456,0,0,1,.364-.254Zm23.292.755a2.4,2.4,0,0,1-.492.6,4.845,4.845,0,0,0,2.239-.3,1.252,1.252,0,0,1,.823-.137c.143.037.118-.173-.012-.555-.266-.78-.728-1.015-1.369-.793A2.407,2.407,0,0,0,33.792-19.925Zm-.061-1.634a7.6,7.6,0,0,1-.624.551c-.746.52-1.08,1.035-.792,1.32.491.485,1.405-.33,1.419-1.306.006-.411.359-.809,1.336-.925.261-.031.333-.132.046-.127a5.531,5.531,0,0,0-.614.026A1.858,1.858,0,0,0,33.731-21.559Zm-20.692.235a6.449,6.449,0,0,0,.634.955l-2.012.493c-.416-.2-1-.858-.509-1.288v0Zm21.74-.2a2.142,2.142,0,0,1,.937.021,1.585,1.585,0,0,1,1.028,1.2c.01.218.143.319.206.071a3.91,3.91,0,0,0,.228-.987c0-.075-.008-.206-.072-.247a3.138,3.138,0,0,0-.48-.038,2.441,2.441,0,0,1-.58-.168,2.194,2.194,0,0,0-1.324-.016C34.64-21.668,34.51-21.492,34.779-21.527Zm-24.391.65-3.129.087a.571.571,0,0,1-.579-.475l-.055-.323a.832.832,0,0,1,.214-.71.832.832,0,0,1,.7-.257c.956.1,1.741.194,2.22.247A2.5,2.5,0,0,0,10.388-20.877ZM32-21.223a.8.8,0,0,0,1.106-.088,2.078,2.078,0,0,1,1.858-1c.256,0,.139-.117-.093-.336a.964.964,0,0,0-.877-.3c-.285.016-.384,0-.384-.088,0-.349-.605-.564-1.021-.307C31.861-22.882,31.536-21.684,32-21.223Zm2.511-1.326c.024.038-.616.219-.875.4a3.026,3.026,0,0,1-.271.208.8.8,0,0,1-.554-.164c-.158-.182-.068-.6.225-.6.178,0,.075.149.009.316-.037.093-.022.213.037.231.539.164.376-.687.054-.742-.236-.04-.7.135-.723.5a.507.507,0,0,0,.219.5.781.781,0,0,0,.576.085,1.081,1.081,0,0,1-.766.438c-.375-.02-.422-.7-.18-1.18.142-.284.49-.6.764-.591.374.018.334.265.5.437C33.632-22.6,34.374-22.762,34.513-22.549Zm-21.494.927-2.3.1a2.514,2.514,0,0,1-.345-2.519,3.958,3.958,0,0,0,2.553,1.2,3.161,3.161,0,0,0-.063.526A1.113,1.113,0,0,0,13.018-21.621Zm18.63-2c-.191.177-.257.167-.473-.156a.982.982,0,0,0-.8-.487,1.7,1.7,0,0,0-1.208.665c-.038.076.074.1.11.24a1.517,1.517,0,0,0,1.2,1.126A1.248,1.248,0,0,0,31.7-22.9a2.174,2.174,0,0,1,.969-.965,1.26,1.26,0,0,1,1.357.453.624.624,0,0,0,.341.1,1.189,1.189,0,0,1,.588.4c.314.378.456.393.381.147a2.769,2.769,0,0,0-1.063-.991c-.327-.107-.688-.684-1.235-.8-.239-.05-.44.11-.639.282C32.141-24.044,31.723-23.692,31.649-23.624ZM9.734-22.614c-.484-.084-1.834-.319-2.794-.474a.693.693,0,0,1-.452-.279.693.693,0,0,1-.122-.517l.079-.485a.632.632,0,0,1,.321-.452.632.632,0,0,1,.554-.025c.86.372,1.947.859,2.416,1.069A8.182,8.182,0,0,0,9.734-22.614Zm3.25-.453a4.24,4.24,0,0,1-2.361-1.1c-.51-.6.632-2.1,1.169-1.691a3.582,3.582,0,0,0,1.627,2.074A1.683,1.683,0,0,0,12.984-23.067Zm.592-.853a4.462,4.462,0,0,1-1.313-1.859.774.774,0,0,1,0-.486c.423-.691,1.5-.6,1.877-.549a.14.14,0,0,1,.113.143,3.672,3.672,0,0,0,.245,1.89c.013.033.067.492-.005.5A2.133,2.133,0,0,0,13.576-23.92Zm-3.784-.168L7.273-25.412a.784.784,0,0,1-.384-.462.783.783,0,0,1,.056-.6l.033-.062a.884.884,0,0,1,.614-.454.884.884,0,0,1,.739.194l1.9,1.608A4.406,4.406,0,0,0,9.793-24.088Zm5.182-.239a4.5,4.5,0,0,1-.364-2.307.172.172,0,0,1,.142-.177,2.523,2.523,0,0,1,1.74.708.257.257,0,0,1,.049.244,2.4,2.4,0,0,0-.436,1.559A10.771,10.771,0,0,0,14.974-24.327Zm-4.6-1.082a24.65,24.65,0,0,1-1.99-1.77,1.367,1.367,0,0,1,1.654-1.628c.2.292.931,1.839,1.2,2.419A4.179,4.179,0,0,0,10.372-25.409ZM16.115-27c.393-.47,1.3-1.538,1.676-1.893.275-.257.765-.385,1-.2a2.008,2.008,0,0,1,.647.847.78.78,0,0,1-.345.93c-.393.254-1.609.921-2.12,1.2A2.364,2.364,0,0,0,16.115-27Zm-4.62.419c-.3-.6-1.082-2.141-1.263-2.577a.463.463,0,0,1,.032-.468A2.816,2.816,0,0,1,12.21-30.4a.3.3,0,0,1,.318.325c.025.65.071,2.319.087,2.9A4.493,4.493,0,0,0,11.5-26.58Zm3.049-.774c.245-.649.769-2.039.94-2.465.05-.124.148-.456.325-.552a1.717,1.717,0,0,1,.992-.074,1.389,1.389,0,0,1,.788.567.663.663,0,0,1-.079.668c-.255.394-1.192,1.58-1.609,2.1A3.605,3.605,0,0,0,14.545-27.355Zm-1.664.1c-.011-.664-.035-2.536.037-3.058a.634.634,0,0,1,.457-.522,3.637,3.637,0,0,1,1.454.013.575.575,0,0,1,.434.584,25.429,25.429,0,0,1-.984,2.88c-.352,0-.744.028-1.184.07A1.88,1.88,0,0,0,12.88-27.253Zm12.233-9.466H3.325l-.048-.3H25.161Zm.137-.867H3.185l-.1-.635a2.033,2.033,0,0,0,.221-.065,1.993,1.993,0,0,0,.648-.384,2.446,2.446,0,0,0,.457-.551,3.507,3.507,0,0,0,.244-.476c.015-.035.028-.07.041-.105v-.614a.389.389,0,0,0-.055.019.491.491,0,0,0-.235.239c-.034.067-.057.138-.084.208-.013.032-.026.064-.039.1-.033.075-.067.149-.1.223a2.488,2.488,0,0,1-.332.5,1.639,1.639,0,0,1-.814.509l-.012,0L1.744-46.513H26.662l-1.254,7.936a1.881,1.881,0,0,1-.239-.047,1.639,1.639,0,0,1-.814-.509,2.492,2.492,0,0,1-.332-.5c-.037-.073-.071-.148-.1-.223-.013-.032-.027-.064-.039-.1-.027-.069-.05-.141-.084-.208a.491.491,0,0,0-.235-.239.389.389,0,0,0-.055-.019v.614c.013.035.026.071.041.105a3.506,3.506,0,0,0,.243.476,2.449,2.449,0,0,0,.457.551,1.994,1.994,0,0,0,.649.384,2.216,2.216,0,0,0,.45.107ZM11.765-38.56s.178,0,.229,0a1.9,1.9,0,0,0,.374-.059,1.639,1.639,0,0,0,.814-.509,2.492,2.492,0,0,0,.332-.5c.037-.073.07-.148.1-.223.013-.032.026-.064.039-.1.027-.069.05-.141.084-.208a.492.492,0,0,1,.235-.239.391.391,0,0,1,.056-.019v.614c-.013.035-.026.071-.041.105a3.507,3.507,0,0,1-.244.476,2.446,2.446,0,0,1-.457.551,1.992,1.992,0,0,1-.649.384,2.366,2.366,0,0,1-.622.125c-.063,0-.267.006-.267.006-.066,0-.182,0-.241-.006a2.366,2.366,0,0,1-.623-.125,1.992,1.992,0,0,1-.648-.384,2.446,2.446,0,0,1-.457-.551A3.507,3.507,0,0,1,9.54-39.7c-.015-.035-.028-.07-.041-.105v-.614a.391.391,0,0,1,.056.019.492.492,0,0,1,.235.239c.034.067.057.138.084.208.013.032.026.064.039.1.033.075.067.149.1.223a2.492,2.492,0,0,0,.332.5,1.639,1.639,0,0,0,.814.509,1.9,1.9,0,0,0,.374.059C11.59-38.561,11.71-38.563,11.765-38.56Zm9.338.405s-.195,0-.254-.006a2.367,2.367,0,0,1-.623-.125,1.993,1.993,0,0,1-.649-.384,2.446,2.446,0,0,1-.457-.551,3.506,3.506,0,0,1-.244-.476c-.015-.035-.028-.07-.041-.105v-.614a.389.389,0,0,1,.055.019.491.491,0,0,1,.235.239c.034.067.057.138.084.208.013.032.026.064.039.1.033.075.067.149.1.223a2.488,2.488,0,0,0,.332.5,1.639,1.639,0,0,0,.814.509,1.9,1.9,0,0,0,.374.059c.054,0,.175,0,.229,0,0,0,.178,0,.229,0a1.9,1.9,0,0,0,.374-.059,1.639,1.639,0,0,0,.814-.509,2.492,2.492,0,0,0,.332-.5c.037-.073.071-.148.1-.223.013-.032.027-.064.039-.1.027-.069.05-.141.084-.208a.491.491,0,0,1,.235-.239.389.389,0,0,1,.055-.019v.614c-.013.035-.027.071-.041.105a3.507,3.507,0,0,1-.244.476,2.449,2.449,0,0,1-.457.551,1.994,1.994,0,0,1-.649.384,2.365,2.365,0,0,1-.622.125C21.293-38.158,21.165-38.154,21.1-38.155Zm-4.658-.406c.058,0,.167,0,.218,0a1.9,1.9,0,0,0,.374-.059,1.639,1.639,0,0,0,.814-.509,2.492,2.492,0,0,0,.332-.5c.037-.073.071-.148.1-.223.013-.032.027-.064.039-.1.027-.069.05-.141.084-.208a.492.492,0,0,1,.235-.239.391.391,0,0,1,.056-.019v.614c-.013.035-.027.071-.041.105a3.5,3.5,0,0,1-.244.476,2.446,2.446,0,0,1-.457.551,1.994,1.994,0,0,1-.649.384,2.366,2.366,0,0,1-.622.125c-.063,0-.191.007-.254.006s-.191,0-.254-.006a2.366,2.366,0,0,1-.623-.125,1.992,1.992,0,0,1-.649-.384,2.446,2.446,0,0,1-.457-.551,3.507,3.507,0,0,1-.244-.476c-.015-.035-.028-.07-.041-.105v-.614a.386.386,0,0,1,.056.019.491.491,0,0,1,.235.239c.034.067.057.138.084.208.013.032.026.064.039.1.033.075.067.149.1.223a2.488,2.488,0,0,0,.332.5,1.639,1.639,0,0,0,.814.509,1.9,1.9,0,0,0,.374.059C16.258-38.561,16.444-38.56,16.444-38.56Zm-9.578,0c.054,0,.407,0,.458,0a1.9,1.9,0,0,0,.374-.059,1.639,1.639,0,0,0,.814-.509,2.488,2.488,0,0,0,.332-.5c.037-.073.071-.148.1-.223.013-.032.027-.064.039-.1.027-.069.05-.141.084-.208a.491.491,0,0,1,.235-.239.386.386,0,0,1,.056-.019v.614c-.013.035-.026.071-.041.105a3.507,3.507,0,0,1-.244.476,2.446,2.446,0,0,1-.457.551,1.993,1.993,0,0,1-.648.384,2.366,2.366,0,0,1-.622.125c-.063,0-.449,0-.508,0a2.366,2.366,0,0,1-.622-.125,1.994,1.994,0,0,1-.649-.384,2.446,2.446,0,0,1-.457-.551,3.5,3.5,0,0,1-.244-.476c-.015-.035-.028-.07-.041-.105v-.614a.4.4,0,0,1,.056.019.492.492,0,0,1,.235.239c.034.067.057.138.084.208.013.032.026.064.039.1.033.075.067.149.1.223a2.492,2.492,0,0,0,.332.5,1.639,1.639,0,0,0,.814.509A1.9,1.9,0,0,0,6.867-38.564ZM4.63-40.6l-.159.14a.015.015,0,0,1-.011,0,.15.15,0,0,1-.111-.068.021.021,0,0,1,0-.027l.369-.325a.059.059,0,0,1,.078,0l.369.325a.021.021,0,0,1,.005.027.15.15,0,0,1-.111.068.015.015,0,0,1-.011,0L4.784-40.7a.034.034,0,0,0-.044,0Zm4.669,0-.16.14a.015.015,0,0,1-.011,0,.15.15,0,0,1-.111-.068.021.021,0,0,1,.005-.027l.369-.325a.059.059,0,0,1,.078,0l.369.325a.021.021,0,0,1,.005.027.15.15,0,0,1-.111.068.015.015,0,0,1-.011,0L9.453-40.7a.034.034,0,0,0-.044,0Zm4.669,0-.159.14a.015.015,0,0,1-.011,0,.15.15,0,0,1-.111-.068.021.021,0,0,1,.005-.027l.369-.325a.059.059,0,0,1,.078,0l.369.325a.021.021,0,0,1,.005.027.15.15,0,0,1-.111.068.015.015,0,0,1-.011,0l-.268-.235a.034.034,0,0,0-.044,0Zm4.669,0-.16.14a.015.015,0,0,1-.011,0,.15.15,0,0,1-.111-.068.021.021,0,0,1,.005-.027l.369-.325a.059.059,0,0,1,.078,0l.369.325a.021.021,0,0,1,0,.027.15.15,0,0,1-.111.068.015.015,0,0,1-.011,0L18.79-40.7a.034.034,0,0,0-.044,0Zm4.669,0-.16.14a.015.015,0,0,1-.011,0,.15.15,0,0,1-.111-.068.021.021,0,0,1,.005-.027l.369-.325a.059.059,0,0,1,.078,0l.369.325a.021.021,0,0,1,0,.027.15.15,0,0,1-.111.068.015.015,0,0,1-.011,0l-.268-.235a.034.034,0,0,0-.045,0Zm.131-2.19.66-.612s.8-.789,1.008-.975a.381.381,0,0,1,.247-.1,6.875,6.875,0,0,0-.791,2.347,2.025,2.025,0,0,1-.625,1.483l-.5-.439-.5.439a2.025,2.025,0,0,1-.625-1.483,6.875,6.875,0,0,0-.791-2.347.381.381,0,0,1,.247.1c.212.186,1.008.975,1.008.975Zm-18.675,0,.66-.612s.8-.789,1.008-.975a.381.381,0,0,1,.247-.1,6.875,6.875,0,0,0-.791,2.347,2.025,2.025,0,0,1-.625,1.483l-.5-.439-.5.439a2.025,2.025,0,0,1-.625-1.483,6.875,6.875,0,0,0-.791-2.347.381.381,0,0,1,.247.1c.211.186,1.008.975,1.008.975Zm4.669,0,.66-.612s.8-.789,1.008-.975a.381.381,0,0,1,.247-.1,6.875,6.875,0,0,0-.791,2.347,2.025,2.025,0,0,1-.625,1.483l-.5-.439-.5.439a2.025,2.025,0,0,1-.625-1.483,6.875,6.875,0,0,0-.791-2.347.38.38,0,0,1,.247.1c.212.186,1.008.975,1.008.975Zm4.669,0,.66-.612s.8-.789,1.008-.975a.381.381,0,0,1,.247-.1,6.877,6.877,0,0,0-.791,2.347,2.025,2.025,0,0,1-.625,1.483l-.5-.439-.5.439a2.025,2.025,0,0,1-.625-1.483,6.875,6.875,0,0,0-.791-2.347.381.381,0,0,1,.247.1c.212.186,1.008.975,1.008.975Zm4.669,0,.66-.612s.8-.789,1.008-.975a.381.381,0,0,1,.247-.1,6.875,6.875,0,0,0-.791,2.347,2.025,2.025,0,0,1-.625,1.483l-.5-.439-.5.439a2.025,2.025,0,0,1-.625-1.483,6.877,6.877,0,0,0-.791-2.347.381.381,0,0,1,.247.1c.212.186,1.008.975,1.008.975Zm-5.226-.723-.969-.9a.26.26,0,0,1-.083-.2.26.26,0,0,1,.093-.193s0,0,0,0a.261.261,0,0,1,.207-.058.261.261,0,0,1,.18.117l.667,1.033A.57.57,0,0,0,13.542-43.514Zm9.338,0-.969-.9a.26.26,0,0,1-.083-.2.26.26,0,0,1,.093-.193s0,0,0,0a.261.261,0,0,1,.207-.058.261.261,0,0,1,.18.117l.667,1.033A.574.574,0,0,0,22.879-43.514Zm-14.006,0-.969-.9a.259.259,0,0,1-.083-.2.26.26,0,0,1,.093-.193s0,0,0,0a.261.261,0,0,1,.207-.058.261.261,0,0,1,.18.117l.667,1.033A.572.572,0,0,0,8.873-43.514Zm9.338,0-.969-.9a.26.26,0,0,1-.083-.2.26.26,0,0,1,.093-.193s0,0,0,0a.261.261,0,0,1,.207-.058.261.261,0,0,1,.18.117l.667,1.033A.572.572,0,0,0,18.211-43.514Zm-14.006,0-.969-.9a.26.26,0,0,1-.083-.2.26.26,0,0,1,.093-.193s0,0,0,0a.261.261,0,0,1,.207-.058.261.261,0,0,1,.18.117L4.3-43.713A.574.574,0,0,0,4.2-43.514Zm1.02-.2.667-1.032a.26.26,0,0,1,.18-.116.26.26,0,0,1,.206.058h0a.261.261,0,0,1,.093.194.261.261,0,0,1-.084.2l-.969.9A.572.572,0,0,0,5.224-43.714Zm18.675,0,.667-1.032a.26.26,0,0,1,.18-.116.26.26,0,0,1,.206.058h0a.261.261,0,0,1,.093.194.261.261,0,0,1-.084.2l-.969.9A.572.572,0,0,0,23.9-43.714Zm-4.669,0,.667-1.032a.26.26,0,0,1,.18-.116.26.26,0,0,1,.206.058h0a.261.261,0,0,1,.093.194.261.261,0,0,1-.084.2l-.969.9A.572.572,0,0,0,19.23-43.714Zm-4.669,0,.667-1.032a.26.26,0,0,1,.18-.116.26.26,0,0,1,.206.058h0a.261.261,0,0,1,.093.194.261.261,0,0,1-.084.2l-.969.9A.572.572,0,0,0,14.561-43.714Zm-4.669,0,.667-1.032a.26.26,0,0,1,.18-.116.26.26,0,0,1,.206.058h0a.261.261,0,0,1,.093.194.261.261,0,0,1-.084.2l-.969.9A.572.572,0,0,0,9.892-43.714Zm8.472-.068-.547-1.068a.26.26,0,0,1-.011-.214.26.26,0,0,1,.153-.15s0,0,0,0a.261.261,0,0,1,.214.016.262.262,0,0,1,.129.172l.255,1.118A.577.577,0,0,0,18.365-43.782Zm-4.669,0-.547-1.068a.26.26,0,0,1-.011-.214.26.26,0,0,1,.153-.15s0,0,0,0a.261.261,0,0,1,.214.016.261.261,0,0,1,.129.172l.255,1.118A.577.577,0,0,0,13.7-43.782Zm-4.669,0L8.48-44.85a.26.26,0,0,1-.011-.214.26.26,0,0,1,.153-.15s0,0,0,0a.261.261,0,0,1,.214.016.261.261,0,0,1,.13.172l.255,1.118A.575.575,0,0,0,9.027-43.782Zm14.007,0-.547-1.068a.26.26,0,0,1-.011-.214.26.26,0,0,1,.153-.15s0,0,0,0a.261.261,0,0,1,.214.016.261.261,0,0,1,.129.172l.255,1.118A.575.575,0,0,0,23.034-43.782Zm-18.675,0L3.811-44.85a.26.26,0,0,1-.011-.214.26.26,0,0,1,.153-.15s0,0,0,0a.261.261,0,0,1,.214.016.261.261,0,0,1,.129.172l.255,1.118A.575.575,0,0,0,4.358-43.782Zm5.279-.127c.092-.4.192-.843.255-1.118a.26.26,0,0,1,.129-.171.26.26,0,0,1,.213-.016h0a.261.261,0,0,1,.154.15.261.261,0,0,1-.011.215l-.547,1.067A.577.577,0,0,0,9.638-43.909Zm14.006,0,.256-1.118a.26.26,0,0,1,.129-.171.26.26,0,0,1,.213-.016h0a.261.261,0,0,1,.154.15.261.261,0,0,1-.011.215l-.547,1.067A.577.577,0,0,0,23.644-43.909Zm-18.675,0,.255-1.118a.26.26,0,0,1,.129-.171.26.26,0,0,1,.213-.016h0a.261.261,0,0,1,.154.15.261.261,0,0,1-.011.215l-.547,1.067A.577.577,0,0,0,4.969-43.909Zm9.338,0c.091-.4.192-.843.255-1.118a.26.26,0,0,1,.129-.171.26.26,0,0,1,.213-.016h0a.261.261,0,0,1,.154.15.261.261,0,0,1-.011.215L14.5-43.783A.576.576,0,0,0,14.306-43.909Zm4.669,0,.255-1.118a.26.26,0,0,1,.129-.171.26.26,0,0,1,.213-.016h0a.261.261,0,0,1,.154.15.261.261,0,0,1-.011.215l-.547,1.067A.576.576,0,0,0,18.975-43.909Zm4.356-.029c-.056-.5-.121-1.081-.157-1.414a.263.263,0,0,1,.065-.2.263.263,0,0,1,.2-.088h0a.264.264,0,0,1,.2.088.264.264,0,0,1,.065.206l-.158,1.414a.572.572,0,0,0-.1-.009A.577.577,0,0,0,23.331-43.938Zm-4.669,0c-.056-.5-.121-1.081-.157-1.414a.263.263,0,0,1,.065-.2.263.263,0,0,1,.2-.088h0a.264.264,0,0,1,.2.088.264.264,0,0,1,.065.206l-.158,1.414a.572.572,0,0,0-.1-.009A.576.576,0,0,0,18.662-43.938Zm-9.338,0c-.056-.5-.121-1.081-.158-1.414a.263.263,0,0,1,.065-.2.263.263,0,0,1,.2-.088h0a.264.264,0,0,1,.2.088.264.264,0,0,1,.065.206l-.158,1.414a.572.572,0,0,0-.1-.009A.575.575,0,0,0,9.325-43.938Zm-4.669,0c-.056-.5-.121-1.081-.157-1.414a.263.263,0,0,1,.065-.2.263.263,0,0,1,.2-.088h0a.264.264,0,0,1,.2.088.264.264,0,0,1,.065.206l-.158,1.414a.572.572,0,0,0-.1-.009A.577.577,0,0,0,4.656-43.938Zm9.338,0c-.056-.5-.121-1.081-.157-1.414a.264.264,0,0,1,.065-.2.263.263,0,0,1,.2-.088h0a.264.264,0,0,1,.2.088.264.264,0,0,1,.065.206L14.2-43.938a.573.573,0,0,0-.1-.009A.576.576,0,0,0,13.993-43.938ZM26.751-47.08H1.653L1.5-48H26.9Z" transform="translate(3 48)" fill="#fecc09" fill-rule="evenodd"/>
  </g>
</svg>
