<svg xmlns="http://www.w3.org/2000/svg" xmlns:xlink="http://www.w3.org/1999/xlink" width="48" height="48" viewBox="0 0 48 48">
  <defs>
    <clipPath id="clip-path">
      <rect width="48" height="48" fill="none"/>
    </clipPath>
  </defs>
  <g id="Bank-Saman" clip-path="url(#clip-path)">
    <rect id="Boundary" width="48" height="48" fill="none"/>
    <path id="Shape" d="M16.437,8.088h0A47.276,47.276,0,0,1,23.844,0,16.236,16.236,0,0,1,27.5,7.412a38.2,38.2,0,0,1,6.855-3C35.971,3.869,37.64,3.4,39.32,2.988a31.808,31.808,0,0,1-2.55,11.329h0A30.189,30.189,0,0,1,48,17.058a47.731,47.731,0,0,1-9.311,9.4h0A18.737,18.737,0,0,1,43.866,34,44.446,44.446,0,0,1,32.9,37.287h0a15.179,15.179,0,0,1-.734,7.234c-1.2-.1-2.393-.238-3.537-.424a24.465,24.465,0,0,1-4.847-1.24h0A13.572,13.572,0,0,1,20.1,47.415a22.022,22.022,0,0,1-4.988-4.023h0a11.931,11.931,0,0,1-4.485,1.822,17.569,17.569,0,0,1-2.19-4.754,9.322,9.322,0,0,1-2.677-.083,14.353,14.353,0,0,1-1.59-.356A15.659,15.659,0,0,1,4.153,35.3h0A11.8,11.8,0,0,1,.593,32.94,14.37,14.37,0,0,1,2.406,28.7h0A15.658,15.658,0,0,1,0,24.468a13.118,13.118,0,0,1,3.518-3.246l-.011-.042a23.488,23.488,0,0,1-.5-6.118,15.712,15.712,0,0,1,1.85-.762,9.7,9.7,0,0,1,3.2-.554h0a35.363,35.363,0,0,1,2.672-7.887,11.191,11.191,0,0,1,5.7,2.23Z" transform="translate(0 0.25)" fill="#7dcdf1"/>
    <path id="Shape-2" data-name="Shape" d="M17.3,6.76h0a36.977,36.977,0,0,1,4.323-4.328A22.591,22.591,0,0,1,25.093,0a12.268,12.268,0,0,1,.132,3.51A27.187,27.187,0,0,1,23.984,9.2h0a34.454,34.454,0,0,1,6.129-1.908,18.485,18.485,0,0,1,4.251-.383,20.382,20.382,0,0,1-2.24,3.8,36.927,36.927,0,0,1-4.437,4.937,24.521,24.521,0,0,1,5.513,1.54,11.981,11.981,0,0,1,3.083,1.865,22.732,22.732,0,0,1-3.788,2.231,35.192,35.192,0,0,1-5.841,2.092h0a17.34,17.34,0,0,1,2.871,3.77,8.638,8.638,0,0,1,.966,2.73,17.642,17.642,0,0,1-3.6.131,26.329,26.329,0,0,1-4.988-.828,14.541,14.541,0,0,1,.118,3.975,7.515,7.515,0,0,1-.649,2.292A12.629,12.629,0,0,1,18.917,34.2a19.094,19.094,0,0,1-3.112-2.561l-.007-.006.007.007A12.991,12.991,0,0,1,14.131,34.6,6.543,6.543,0,0,1,12.7,35.98a9.406,9.406,0,0,1-1.254-1.811,15.735,15.735,0,0,1-1.25-3.15h0a11.261,11.261,0,0,1-2.512,1.568,5.74,5.74,0,0,1-1.659.461,8.125,8.125,0,0,1-.268-1.893,14.257,14.257,0,0,1,.274-3.049h0a10.231,10.231,0,0,1-2.707.158,5.5,5.5,0,0,1-1.582-.372,7.649,7.649,0,0,1,.511-1.714,12.789,12.789,0,0,1,1.479-2.512h0a10.641,10.641,0,0,1-2.453-1.219A6.454,6.454,0,0,1,0,21.289a6.819,6.819,0,0,1,1.167-1.333,11.5,11.5,0,0,1,2.413-1.6h0a13.659,13.659,0,0,1-1.743-2.6,9.052,9.052,0,0,1-.724-1.954A5.983,5.983,0,0,1,2.82,13.13a10.332,10.332,0,0,1,3.01-.2,20.142,20.142,0,0,1-.422-3.906,13.625,13.625,0,0,1,.246-2.693,5.531,5.531,0,0,1,2,.394,10.873,10.873,0,0,1,2.94,1.793h0a30.237,30.237,0,0,1,1.692-4.767A20.1,20.1,0,0,1,14.031.676a6.919,6.919,0,0,1,1.647,1.948A16.2,16.2,0,0,1,17.3,6.76Z" transform="translate(2.406 7.662)" fill="#00aae7"/>
    <path id="Shape-3" data-name="Shape" d="M10.006,5.777c-.023.052.023.053,0,0v0A24.588,24.588,0,0,1,13.717,0a16.727,16.727,0,0,1,.318,6.2.08.08,0,0,0-.016.112l.016-.112A25.3,25.3,0,0,1,20.4,2.437a23.617,23.617,0,0,1-3.324,6.526h0c.405-.08.818-.146,1.245-.2a21.019,21.019,0,0,1,5.782.123A25.635,25.635,0,0,1,17.932,13.2a15.307,15.307,0,0,1,5.142,3.414,22.933,22.933,0,0,1-5.558.769c-.4,0-.783-.012-1.156-.038h0a13,13,0,0,1,1.965,5.072,16.484,16.484,0,0,1-5.184-2.348h0a12.272,12.272,0,0,1-.916,4.814A13.672,13.672,0,0,1,9.438,20.85h0c.018-.033-.024-.055,0,0h0a11.4,11.4,0,0,1-2.816,3.409,12.752,12.752,0,0,1-.435-4.45h0a10.017,10.017,0,0,1-3.73,1.537,12.048,12.048,0,0,1,1.533-3.957c.043,0,.031-.05,0,0-.254.023-.507.035-.763.035a9.363,9.363,0,0,1-3.069-.517,11.045,11.045,0,0,1,3.03-2.8A10.027,10.027,0,0,1,0,11.6a10,10,0,0,1,3.177-.967c.265-.034.532-.053.8-.061.029.046.056,0,0,0a13.173,13.173,0,0,1-1.722-4.4A9.233,9.233,0,0,1,6.356,7.5h0c0,.051.044.028,0,0h0a18.982,18.982,0,0,1,.657-5.743,11.192,11.192,0,0,1,2.992,4.012v0Z" transform="translate(5.986 14.422)" fill="#006fba"/>
    <path id="Shape-4" data-name="Shape" d="M10.851.4l0,.023A14.6,14.6,0,0,0,7.67,4a9.851,9.851,0,0,0-.851-4A12.816,12.816,0,0,0,5.688,4.246,7.55,7.55,0,0,0,3.169,1.727a9.73,9.73,0,0,0,.881,3.709A7.052,7.052,0,0,0,.787,4.8c-.013-.02-.039-.018-.075,0l.075,0A7.617,7.617,0,0,0,3.139,7.2,7.832,7.832,0,0,0,0,8.334a7.053,7.053,0,0,0,3.114.738A8.842,8.842,0,0,0,.8,11.612h0a7.769,7.769,0,0,0,3.146-.971A9.227,9.227,0,0,0,3,14.032a8.8,8.8,0,0,0,2.462-2.483,9.046,9.046,0,0,0,.79,3.524,9.2,9.2,0,0,0,1.082-3.531,9.232,9.232,0,0,0,2.622,2.75h0A8.927,8.927,0,0,0,9.1,10.54a10.6,10.6,0,0,0,4.072,1.029A9.166,9.166,0,0,0,10.26,8.745a13.137,13.137,0,0,0,4.485-1.321,10.844,10.844,0,0,0-4.351-.789,14.54,14.54,0,0,0,3.5-3.448h0A13.481,13.481,0,0,0,9.423,4.87,13.028,13.028,0,0,0,10.848.425C10.854.42,10.855.413,10.851.4Z" transform="translate(9.173 20.199)" fill="#fff"/>
  </g>
</svg>
