<svg xmlns="http://www.w3.org/2000/svg" xmlns:xlink="http://www.w3.org/1999/xlink" width="48" height="48" viewBox="0 0 48 48">
  <defs>
    <clipPath id="clip-path">
      <rect width="48" height="48" fill="none"/>
    </clipPath>
  </defs>
  <g id="Bank-Tosee-Taavon" clip-path="url(#clip-path)">
    <rect id="Boundary" width="48" height="48" fill="none"/>
    <path id="Shape" d="M31.268-23a7.306,7.306,0,0,0-7.26-7.311,7.273,7.273,0,0,0-7.311,7.26,7.338,7.338,0,0,0,7.26,7.311A7.21,7.21,0,0,0,31.268-23Z" transform="translate(0 48)" fill="#ccc"/>
    <path id="Shape-2" data-name="Shape" d="M22.041-13.67a10.123,10.123,0,0,1-4.185-2.017,1.371,1.371,0,0,0-1.765.05L8.831-8.931A.92.92,0,0,0,8.68-7.822L11.352-2.78A4.436,4.436,0,0,0,16.041-.561l5.647-1.008a1.024,1.024,0,0,0,.756-.857l.706-9.781A1.383,1.383,0,0,0,22.041-13.67Zm9.933-2.067a1.442,1.442,0,0,0-1.815-.05,9.432,9.432,0,0,1-4.134,2.067,1.383,1.383,0,0,0-1.109,1.462l.807,9.781a.963.963,0,0,0,.807.807l5.647.958a4.363,4.363,0,0,0,4.639-2.319l2.622-5.042a1,1,0,0,0-.151-1.16ZM15.487-18.763A9.243,9.243,0,0,1,14.428-23v-.2a1.33,1.33,0,0,0-1.16-1.412L3.588-26.124a1.026,1.026,0,0,0-.958.555L.361-20.376a4.423,4.423,0,0,0,1.16,5.092l4.235,3.731a.916.916,0,0,0,1.16.1l8.067-5.5A1.492,1.492,0,0,0,15.487-18.763ZM47.6-20.477,45.335-25.67a.831.831,0,0,0-.958-.555L34.7-24.662a1.33,1.33,0,0,0-1.16,1.412v.3a9.205,9.205,0,0,1-1.008,4.235A1.341,1.341,0,0,0,32.982-17L41.1-11.5a.915.915,0,0,0,1.16-.1l4.235-3.781A4.347,4.347,0,0,0,47.6-20.477ZM4.243-28.847l9.378,2.723a1.426,1.426,0,0,0,1.664-.706,9.383,9.383,0,0,1,2.874-3.681,1.391,1.391,0,0,0,.3-1.765L13.52-40.746a.985.985,0,0,0-1.059-.4l-5.5,1.563A4.439,4.439,0,0,0,3.84-35.5l-.2,5.7A.961.961,0,0,0,4.243-28.847Zm25.512-1.714a9.132,9.132,0,0,1,2.874,3.63,1.521,1.521,0,0,0,1.714.756L43.671-29a.986.986,0,0,0,.655-.958l-.2-5.7A4.422,4.422,0,0,0,40.9-39.687L35.4-41.2a.928.928,0,0,0-1.059.4L29.4-32.275A1.5,1.5,0,0,0,29.756-30.561Zm-9.63-2.521a1.313,1.313,0,0,0,1.563.807,12.1,12.1,0,0,1,2.319-.252,8.6,8.6,0,0,1,2.319.3,1.376,1.376,0,0,0,1.613-.857l3.63-9.126a.932.932,0,0,0-.353-1.059l-4.588-3.378a4.311,4.311,0,0,0-5.193,0l-4.588,3.328a.957.957,0,0,0-.353,1.109Z" transform="translate(0 48)" fill="#50b4d0" fill-rule="evenodd"/>
  </g>
</svg>
