<svg width="80" height="80" viewBox="0 0 80 80" fill="none" xmlns="http://www.w3.org/2000/svg">
<path d="M80 40C80 62.0914 62.0914 80 40 80C17.9086 80 0 62.0914 0 40C0 17.9086 17.9086 0 40 0C62.0914 0 80 17.9086 80 40ZM3.2 40C3.2 60.3241 19.6759 76.8 40 76.8C60.3241 76.8 76.8 60.3241 76.8 40C76.8 19.6759 60.3241 3.2 40 3.2C19.6759 3.2 3.2 19.6759 3.2 40Z" fill="#F4F4F6"/>
<path d="M80 40C80 62.0914 62.0914 80 40 80C17.9086 80 0 62.0914 0 40C0 17.9086 17.9086 0 40 0C62.0914 0 80 17.9086 80 40ZM3.2 40C3.2 60.3241 19.6759 76.8 40 76.8C60.3241 76.8 76.8 60.3241 76.8 40C76.8 19.6759 60.3241 3.2 40 3.2C19.6759 3.2 3.2 19.6759 3.2 40Z" fill="red"/>

</svg>
