<svg width="128" height="128" viewBox="0 0 128 128" fill="none" xmlns="http://www.w3.org/2000/svg">
<g clip-path="url(#clip0_1013_67)">
<circle cx="64" cy="64" r="64" fill="#EDEEEF"/>
<mask id="mask0_1013_67" style="mask-type:alpha" maskUnits="userSpaceOnUse" x="0" y="0" width="128" height="128">
<circle cx="64" cy="64" r="64" fill="#EDEEEF"/>
</mask>
<g mask="url(#mask0_1013_67)">
<path d="M-34 20.3181L-19.1265 9.0663C-16.2713 6.90635 -12.3287 6.90634 -9.4735 9.0663L0.573488 16.6669C3.42867 18.8268 7.37132 18.8268 10.2265 16.6669L20.2735 9.0663C23.1287 6.90635 27.0713 6.90634 29.9265 9.0663L39.9735 16.6669C42.8287 18.8268 46.7713 18.8268 49.6265 16.6669L59.6735 9.0663C62.5287 6.90635 66.4713 6.90634 69.3265 9.0663L79.3735 16.6669C82.2287 18.8268 86.1713 18.8268 89.0265 16.6669L99.0735 9.0663C101.929 6.90635 105.871 6.90634 108.726 9.0663L118.773 16.6669C121.629 18.8268 125.571 18.8268 128.426 16.6669L138.473 9.0663C141.329 6.90635 145.271 6.90634 148.126 9.0663L163 20.3181" stroke="#E4E4E4"/>
<path d="M-34 48.4722L-19.1265 37.2204C-16.2713 35.0605 -12.3287 35.0605 -9.4735 37.2204L0.573488 44.821C3.42867 46.9809 7.37132 46.9809 10.2265 44.821L20.2735 37.2204C23.1287 35.0605 27.0713 35.0605 29.9265 37.2204L39.9735 44.821C42.8287 46.9809 46.7713 46.9809 49.6265 44.821L59.6735 37.2204C62.5287 35.0605 66.4713 35.0605 69.3265 37.2204L79.3735 44.821C82.2287 46.9809 86.1713 46.9809 89.0265 44.821L99.0735 37.2204C101.929 35.0605 105.871 35.0605 108.726 37.2204L118.773 44.821C121.629 46.9809 125.571 46.9809 128.426 44.821L138.473 37.2204C141.329 35.0605 145.271 35.0605 148.126 37.2204L163 48.4722" stroke="#E4E4E4"/>
<path d="M-34 76.6263L-19.1265 65.3745C-16.2713 63.2146 -12.3287 63.2146 -9.4735 65.3745L0.573488 72.9751C3.42867 75.135 7.37132 75.135 10.2265 72.9751L20.2735 65.3745C23.1287 63.2146 27.0713 63.2146 29.9265 65.3745L39.9735 72.9751C42.8287 75.135 46.7713 75.135 49.6265 72.9751L59.6735 65.3745C62.5287 63.2146 66.4713 63.2146 69.3265 65.3745L79.3735 72.9751C82.2287 75.135 86.1713 75.135 89.0265 72.9751L99.0735 65.3745C101.929 63.2146 105.871 63.2146 108.726 65.3745L118.773 72.9751C121.629 75.135 125.571 75.135 128.426 72.9751L138.473 65.3745C141.329 63.2146 145.271 63.2146 148.126 65.3745L163 76.6263" stroke="#E4E4E4"/>
<path d="M-34 104.78L-19.1265 93.5286C-16.2713 91.3686 -12.3287 91.3686 -9.4735 93.5286L0.573488 101.129C3.42867 103.289 7.37132 103.289 10.2265 101.129L20.2735 93.5286C23.1287 91.3686 27.0713 91.3686 29.9265 93.5286L39.9735 101.129C42.8287 103.289 46.7713 103.289 49.6265 101.129L59.6735 93.5286C62.5287 91.3686 66.4713 91.3686 69.3265 93.5286L79.3735 101.129C82.2287 103.289 86.1713 103.289 89.0265 101.129L99.0735 93.5286C101.929 91.3686 105.871 91.3686 108.726 93.5286L118.773 101.129C121.629 103.289 125.571 103.289 128.426 101.129L138.473 93.5286C141.329 91.3686 145.271 91.3686 148.126 93.5286L163 104.78" stroke="#E4E4E4"/>
<path d="M-34 132.935L-19.1265 121.683C-16.2713 119.523 -12.3287 119.523 -9.4735 121.683L0.573488 129.283C3.42867 131.443 7.37132 131.443 10.2265 129.283L20.2735 121.683C23.1287 119.523 27.0713 119.523 29.9265 121.683L39.9735 129.283C42.8287 131.443 46.7713 131.443 49.6265 129.283L59.6735 121.683C62.5287 119.523 66.4713 119.523 69.3265 121.683L79.3735 129.283C82.2287 131.443 86.1713 131.443 89.0265 129.283L99.0735 121.683C101.929 119.523 105.871 119.523 108.726 121.683L118.773 129.283C121.629 131.443 125.571 131.443 128.426 129.283L138.473 121.683C141.329 119.523 145.271 119.523 148.126 121.683L163 132.935" stroke="#E4E4E4"/>
</g>
<path d="M27.5356 62.7858V106C27.5356 108.209 29.3265 110 31.5356 110H100.679C102.888 110 104.679 108.209 104.679 106V62.7858C104.679 62.1562 104.382 61.5635 103.879 61.1858L67.4571 33.8697C66.6571 33.2697 65.5571 33.2697 64.7571 33.8697L28.3356 61.1858C27.832 61.5635 27.5356 62.1562 27.5356 62.7858Z" fill="#0722AA"/>
<path d="M25.3214 58.5715V102.786C25.3214 104.995 27.1123 106.786 29.3214 106.786H98.4643C100.673 106.786 102.464 104.995 102.464 102.786V58.5715L65.2428 30.6554C64.4428 30.0554 63.3428 30.0554 62.5428 30.6554L25.3214 58.5715Z" fill="#FFD60A"/>
<path d="M76.5 58.5714L32.6578 99.8742C30.0219 102.357 31.7793 106.786 35.4007 106.786H98.4643C100.673 106.786 102.464 104.995 102.464 102.786V58.5714L70.7098 34.7555C68.8613 33.3691 66.374 35.3362 67.2972 37.4545L76.5 58.5714Z" fill="#F0BA09"/>
<rect x="35" y="17" width="58" height="86" fill="white"/>
<rect x="51" y="51" width="27" height="4" rx="2" fill="#E8E9EB"/>
<rect x="41" y="59" width="46" height="4" rx="2" fill="#E8E9EB"/>
<rect x="54" y="67" width="20" height="4" rx="2" fill="#E8E9EB"/>
<path d="M102.464 102.786V58.5714L31.9742 102.628C30.0573 103.826 30.9061 106.786 33.1667 106.786H98.4643C100.673 106.786 102.464 104.995 102.464 102.786Z" fill="#0A33FF"/>
<mask id="mask1_1013_67" style="mask-type:alpha" maskUnits="userSpaceOnUse" x="30" y="58" width="73" height="49">
<path d="M102.464 102.786V58.5713L31.9742 102.628C30.0573 103.826 30.9094 106.786 33.17 106.786H98.4556C100.665 106.786 102.464 104.995 102.464 102.786Z" fill="#EDEEEF"/>
</mask>
<g mask="url(#mask1_1013_67)">
<path d="M29.3483 104.536V58.5714L102.875 106.786H31.5983C30.3556 106.786 29.3483 105.778 29.3483 104.536Z" fill="#0722AA"/>
</g>
<path d="M25.3214 102.786V58.5714L98.8482 106.786H29.3214C27.1123 106.786 25.3214 104.995 25.3214 102.786Z" fill="#0A33FF"/>
<path d="M32 98.5C32 97.6716 32.6716 97 33.5 97H47.5C48.3284 97 49 97.6716 49 98.5C49 99.3284 48.3284 100 47.5 100H33.5C32.6716 100 32 99.3284 32 98.5Z" fill="#0722AA"/>
<path d="M54 34C54 28.4772 58.4772 24 64 24C69.5228 24 74 28.4772 74 34C74 39.5228 69.5228 44 64 44C58.4772 44 54 39.5228 54 34Z" fill="#0A33FF"/>
<path d="M63.9052 29.0064L64.0004 29C64.1695 29 64.3329 29.0597 64.4604 29.168C64.5879 29.2763 64.6708 29.4259 64.6938 29.5891L64.7003 29.6818V36.6711L66.8049 34.622C66.9236 34.5064 67.0809 34.4362 67.2483 34.4242C67.4156 34.4122 67.5819 34.4591 67.7167 34.5565L67.7951 34.622C67.9137 34.7376 67.9858 34.8909 67.9981 35.0539C68.0104 35.2169 67.9622 35.3789 67.8623 35.5102L67.7951 35.5865L64.495 38.8002C64.3765 38.9157 64.2194 38.9859 64.0522 38.9981C63.8851 39.0103 63.719 38.9636 63.5841 38.8666L63.5057 38.8002L60.2057 35.5865C60.0805 35.4649 60.0071 35.3015 60.0005 35.1294C59.9938 34.9572 60.0544 34.7889 60.1699 34.6585C60.2854 34.528 60.4473 34.4449 60.6231 34.426C60.7989 34.4071 60.9755 34.4537 61.1175 34.5565L61.1959 34.622L63.3004 36.6729V29.6818C63.3004 29.5171 63.3617 29.3579 63.4729 29.2337C63.584 29.1095 63.7376 29.0288 63.9052 29.0064Z" fill="white"/>
</g>
<defs>
<clipPath id="clip0_1013_67">
<rect width="128" height="128" fill="white"/>
</clipPath>
</defs>
</svg>
