<svg width="128" height="128" viewBox="0 0 128 128" fill="none" xmlns="http://www.w3.org/2000/svg">
<g clip-path="url(#clip0_9653_67090)">
<circle cx="64" cy="64" r="64" fill="#EDEEEF"/>
<mask id="mask0_9653_67090" style="mask-type:alpha" maskUnits="userSpaceOnUse" x="0" y="0" width="128" height="128">
<circle cx="64" cy="64" r="64" fill="#EDEEEF"/>
</mask>
<g mask="url(#mask0_9653_67090)">
<circle cx="64" cy="94" r="49.5" stroke="#E4E4E4"/>
<circle cx="64" cy="94" r="65.5" stroke="#E4E4E4"/>
<circle cx="64" cy="94" r="82.5" stroke="#E4E4E4"/>
<path fill-rule="evenodd" clip-rule="evenodd" d="M35.2369 69.0898C30.6768 69.0898 26.9801 72.8462 26.9801 77.4798V81.6748V83.7723V119.43C26.9801 124.063 30.6768 127.82 35.2369 127.82H97.163C99.4431 127.82 101.291 125.942 101.291 123.625V81.6748C101.291 79.358 99.5604 77.8993 97.2803 77.8993L97.2962 73.0052C97.2962 70.6883 95.3147 69.0898 93.0346 69.0898H35.2369Z" fill="#0A33FF"/>
<path d="M97.2803 77.8993V73.0051H32.7997C31.651 73.0051 30.7197 74.1007 30.7197 75.4522C30.7197 76.8037 31.651 77.8993 32.7997 77.8993H97.2803Z" fill="#0722AA"/>
<path d="M80.3824 103.699C80.3824 100.803 82.689 98.4548 85.5342 98.4548H103.05C104.188 98.4548 105.111 99.3939 105.111 100.552V106.845C105.111 108.003 104.188 108.942 103.05 108.942H85.5342C82.689 108.942 80.3824 106.595 80.3824 103.699Z" fill="white"/>
<path d="M88.6254 103.699C88.6254 105.436 87.2415 106.845 85.5343 106.845C83.8272 106.845 82.4433 105.436 82.4433 103.699C82.4433 101.961 83.8272 100.552 85.5343 100.552C87.2415 100.552 88.6254 101.961 88.6254 103.699Z" fill="#0722AA"/>
<mask id="mask1_9653_67090" style="mask-type:alpha" maskUnits="userSpaceOnUse" x="15" y="27" width="98" height="51">
<rect x="15.0584" y="27" width="97.8833" height="50.8993" fill="#EDEEEF"/>
</mask>
<g mask="url(#mask1_9653_67090)">
<g opacity="0.4" filter="url(#filter0_f_9653_67090)">
<path d="M41.4869 72.0263C41.4869 60.1332 51.1281 50.4919 63.0212 50.4919C74.9143 50.4919 84.5555 60.1332 84.5555 72.0263V93.5606H41.4869V72.0263Z" fill="#FFD60A"/>
</g>
<path d="M80.2855 69.4718C79.3587 77.0194 72.4889 82.3867 64.9413 81.46C57.3937 80.5333 52.0264 73.6635 52.9532 66.1159C53.8799 58.5682 60.7497 53.201 68.2973 54.1277C75.8449 55.0544 81.2122 61.9242 80.2855 69.4718Z" fill="#FFD60A"/>
<path d="M67.9007 59.8325L61.1276 62.5397L60.9564 63.9342L73.6464 65.4924L73.8176 64.0979M70.1357 66.4768L69.5364 71.3576L71.5401 71.6036L72.1394 66.7229M59.7578 73.6958L72.4478 75.2539L72.7047 73.1621L60.0147 71.604M66.1283 65.9848L65.5291 70.8656L67.5327 71.1116L68.132 66.2308M62.121 65.4928L61.5217 70.3735L63.5254 70.6195L64.1247 65.7388L62.121 65.4928Z" fill="#F0BA09"/>
<path fill-rule="evenodd" clip-rule="evenodd" d="M67.9377 57.0561C62.0074 56.328 56.6097 60.5451 55.8816 66.4754C55.1535 72.4056 59.3706 77.8033 65.3009 78.5315C71.2311 79.2596 76.6288 75.0425 77.357 69.1122C78.0851 63.1819 73.868 57.7842 67.9377 57.0561ZM53.9293 66.2356C54.7898 59.2272 61.1689 54.2433 68.1774 55.1038C75.1859 55.9643 80.1698 62.3434 79.3093 69.3519C78.4487 76.3604 72.0696 81.3443 65.0612 80.4838C58.0527 79.6232 53.0688 73.2441 53.9293 66.2356Z" fill="#F0BA09"/>
<path d="M94.7407 84.3582C93.697 91.7846 86.8307 96.9587 79.4043 95.915C71.978 94.8713 66.8039 88.005 67.8476 80.5786C68.8913 73.1523 75.7576 67.9782 83.1839 69.0219C90.6103 70.0656 95.7844 76.9319 94.7407 84.3582Z" fill="#FFD60A"/>
<path d="M82.6946 74.6403L75.9694 77.1932L75.7766 78.5653L88.2627 80.3201L88.4555 78.948M84.7841 81.2304L84.1091 86.0327L86.0806 86.3098L86.7555 81.5075M74.4268 88.17L86.9129 89.9248L87.2021 87.8666L74.716 86.1118M80.8411 80.6762L80.1662 85.4786L82.1376 85.7557L82.8126 80.9533M76.8981 80.1221L76.2232 84.9244L78.1947 85.2015L78.8696 80.3992L76.8981 80.1221Z" fill="#F0BA09"/>
<path fill-rule="evenodd" clip-rule="evenodd" d="M82.7789 71.903C76.9439 71.083 71.5489 75.1484 70.7289 80.9834C69.9088 86.8183 73.9742 92.2133 79.8092 93.0334C85.6442 93.8534 91.0391 89.788 91.8592 83.953C92.6792 78.1181 88.6138 72.7231 82.7789 71.903ZM68.8079 80.7134C69.7771 73.8175 76.153 69.0129 83.0488 69.9821C89.9447 70.9513 94.7493 77.3271 93.7801 84.223C92.811 91.1189 86.4351 95.9235 79.5392 94.9543C72.6433 93.9851 67.8388 87.6093 68.8079 80.7134Z" fill="#F0BA09"/>
<path d="M62.2103 72.7298C64.2687 79.9081 60.1181 87.3958 52.9399 89.4542C45.7616 91.5125 38.2738 87.362 36.2155 80.1837C34.1572 73.0054 38.3077 65.5177 45.486 63.4593C52.6642 61.401 60.152 65.5515 62.2103 72.7298Z" fill="#FFD60A"/>
<path d="M47.3164 68.7682L42.2326 73.8142L42.6129 75.1405L54.682 71.6797L54.3017 70.3535M51.8862 73.9167L53.2173 78.5587L55.1229 78.0122L53.7918 73.3703M45.2751 84.4243L57.3441 80.9636L56.7736 78.9742L44.7046 82.4349M48.0749 75.0096L49.406 79.6515L51.3116 79.1051L49.9806 74.4632M44.2637 76.1024L45.5947 80.7444L47.5004 80.1979L46.1693 75.556L44.2637 76.1024Z" fill="#F0BA09"/>
<path fill-rule="evenodd" clip-rule="evenodd" d="M46.2846 66.2442C40.6445 67.8614 37.3834 73.7447 39.0007 79.3848C40.6179 85.0248 46.5012 88.286 52.1412 86.6687C57.7813 85.0514 61.0424 79.1682 59.4252 73.5281C57.8079 67.888 51.9247 64.6269 46.2846 66.2442ZM37.1439 79.9172C35.2326 73.2516 39.0866 66.2987 45.7522 64.3874C52.4177 62.4761 59.3706 66.3302 61.2819 72.9957C63.1933 79.6612 59.3392 86.6142 52.6737 88.5255C46.0081 90.4368 39.0552 86.5827 37.1439 79.9172Z" fill="#F0BA09"/>
</g>
</g>
</g>
<defs>
<filter id="filter0_f_9653_67090" x="7.81042" y="16.8155" width="110.422" height="110.422" filterUnits="userSpaceOnUse" color-interpolation-filters="sRGB">
<feFlood flood-opacity="0" result="BackgroundImageFix"/>
<feBlend mode="normal" in="SourceGraphic" in2="BackgroundImageFix" result="shape"/>
<feGaussianBlur stdDeviation="16.8382" result="effect1_foregroundBlur_9653_67090"/>
</filter>
<clipPath id="clip0_9653_67090">
<rect width="128" height="128" fill="white"/>
</clipPath>
</defs>
</svg>
