<svg width="128" height="128" viewBox="0 0 128 128" fill="none" xmlns="http://www.w3.org/2000/svg">
<g clip-path="url(#clip0_9653_66683)">
<circle cx="64" cy="64" r="64" fill="#EDEEEF"/>
<mask id="mask0_9653_66683" style="mask-type:alpha" maskUnits="userSpaceOnUse" x="0" y="0" width="128" height="128">
<circle cx="64" cy="64" r="64" fill="#EDEEEF"/>
</mask>
<g mask="url(#mask0_9653_66683)">
<line x1="-11" y1="4.92871" x2="139" y2="4.92871" stroke="#E4E4E4"/>
<line x1="-11" y1="31.7144" x2="139" y2="31.7144" stroke="#E4E4E4"/>
<line x1="-11" y1="58.5" x2="139" y2="58.5" stroke="#E4E4E4"/>
<line x1="65.0814" y1="-16" x2="65.0814" y2="134" stroke="#E4E4E4"/>
<line x1="30.1977" y1="-16" x2="30.1977" y2="134" stroke="#E4E4E4"/>
<line x1="99.9651" y1="-16" x2="99.9651" y2="134" stroke="#E4E4E4"/>
<line x1="-11" y1="85.2856" x2="139" y2="85.2856" stroke="#E4E4E4"/>
<line x1="-11" y1="112.071" x2="139" y2="112.071" stroke="#E4E4E4"/>
<rect x="25" y="40" width="78" height="14" rx="7" fill="#D1D1D1"/>
<rect x="30" y="44" width="68" height="6" rx="3" fill="#FFD60A"/>
<g filter="url(#filter0_f_9653_66683)">
<rect x="33.353" y="44.5098" width="61.3333" height="5.41176" rx="2.70588" fill="#FFD60A"/>
</g>
<g opacity="0.6" filter="url(#filter1_f_9653_66683)">
<rect x="33" y="46" width="63" height="4" rx="2" fill="#F0BA09"/>
</g>
<path d="M14.519 101.446C14.3815 101.447 14.2538 101.498 14.1189 101.514C11.2592 101.852 9 105.665 9 110.376C9 110.764 9.04249 111.136 9.07192 111.511H14.1189V111.548H19.9737H20.0057H31.0113H64.3562C64.3227 111.15 64.2843 110.759 64.2843 110.346C64.2843 105.431 66.748 101.447 69.7871 101.446H31.0113H20.0057H14.519Z" fill="#0A33FF"/>
<path d="M36.5028 47C36.3718 47.0002 36.2474 47.0457 36.1189 47.0601C34.346 47.261 32.8042 48.8068 31.8879 51.074C31.8254 51.2296 31.776 51.4006 31.72 51.5625C31.4369 52.3697 31.2186 53.2449 31.1042 54.1859C31.0371 54.74 31 55.3134 31 55.8993V101.238H69.7758H69.9038V101.261C72.8827 101.373 75.2784 105.293 75.2784 110.137V121.682C75.2451 122.079 75.2784 122.474 75.2784 122.885C75.2784 123.484 75.3219 124.064 75.391 124.629C75.4114 124.795 75.4524 124.948 75.478 125.11C75.4831 125.143 75.4882 125.175 75.4959 125.208C75.4959 125.218 75.501 125.228 75.5036 125.238C75.5061 125.26 75.5062 125.283 75.5113 125.305C75.5241 125.378 75.5369 125.451 75.5497 125.523C75.5957 125.749 75.6239 125.989 75.6776 126.207C75.6802 126.21 75.6776 126.212 75.6776 126.215C75.6802 126.225 75.6853 126.235 75.6853 126.245C75.7749 126.586 75.8875 126.903 75.9976 127.222C76.0104 127.26 76.0257 127.298 76.0385 127.335C76.0846 127.459 76.1179 127.591 76.1665 127.711C76.3175 128.085 76.4941 128.431 76.6784 128.763C76.7117 128.822 76.7321 128.893 76.7654 128.951C76.7705 128.959 76.7782 128.965 76.7833 128.973C76.9906 129.329 77.2184 129.647 77.4616 129.943C77.4718 129.953 77.4769 129.963 77.4872 129.973C77.5307 130.023 77.5767 130.068 77.6228 130.116C77.6305 130.125 77.6382 130.136 77.6459 130.146C77.8327 130.354 78.0298 130.539 78.2294 130.71C78.2346 130.714 78.2397 130.72 78.2448 130.725C78.3292 130.794 78.4086 130.865 78.493 130.928C78.4981 130.93 78.4982 130.933 78.5007 130.935C78.7771 131.138 79.0612 131.318 79.3581 131.446C79.6857 131.587 80.0261 131.675 80.3742 131.717C80.3819 131.718 80.3896 131.723 80.3973 131.724C80.5253 131.739 80.6507 131.784 80.7812 131.784C83.8218 131.784 86.284 127.8 86.284 122.885V67.2039V57.102V56.8766V55.8993C86.284 55.2851 86.3224 54.6823 86.3966 54.1031C86.4632 53.5737 86.563 53.0602 86.6833 52.5698C86.6859 52.5599 86.691 52.5493 86.691 52.5397C86.7268 52.4062 86.7703 52.2821 86.8113 52.1563C86.8266 52.1075 86.8446 52.0618 86.8599 52.0135C86.9572 51.6952 87.0544 51.3845 87.1722 51.0889C87.2361 50.9289 87.3104 50.7832 87.3795 50.6305C87.5151 50.3339 87.6559 50.0479 87.812 49.7812C87.8146 49.778 87.8172 49.7766 87.8197 49.7737C87.8914 49.6546 87.9605 49.5404 88.0373 49.4278C88.1883 49.1955 88.347 48.9769 88.5159 48.7741C88.521 48.7671 88.5261 48.7582 88.5312 48.7515C88.5927 48.6786 88.6618 48.6166 88.7232 48.5485C88.7795 48.4869 88.8332 48.4188 88.8921 48.3606C89.038 48.2142 89.1864 48.0867 89.34 47.9621C89.3503 47.9532 89.3605 47.9412 89.3707 47.9323C89.491 47.8365 89.6139 47.7442 89.7393 47.6614C89.7495 47.6557 89.7547 47.6448 89.7623 47.6391C89.9773 47.5022 90.2025 47.4014 90.4278 47.3083C90.4303 47.3069 90.4329 47.3021 90.4355 47.3007C90.4534 47.2932 90.4739 47.2867 90.4918 47.2783C90.5711 47.2465 90.6505 47.1987 90.7324 47.1729C91.0728 47.0654 91.426 47.0002 91.7869 47H86.284H48.3964H36.5028Z" fill="#0A33FF"/>
<rect x="63" y="82" width="18" height="4" rx="2" fill="white" fill-opacity="0.4"/>
<rect x="69" y="91" width="12" height="4" rx="2" fill="white" fill-opacity="0.4"/>
<rect x="69" y="101" width="12" height="4" rx="2" fill="white" fill-opacity="0.4"/>
<rect x="36" y="82" width="20" height="4" rx="2" fill="white" fill-opacity="0.4"/>
<rect x="36" y="91" width="26" height="4" rx="2" fill="white" fill-opacity="0.4"/>
<rect x="36" y="101" width="26" height="4" rx="2" fill="white" fill-opacity="0.4"/>
<path d="M69.7873 101C66.7482 101 64.2845 104.985 64.2845 109.899C64.2845 110.312 64.3229 110.704 64.3564 111.102H31.0115H20.0059V121.166H20.1018C20.0517 121.65 20.0059 122.141 20.0059 122.647C20.0059 127.067 22.0015 130.71 24.6129 131.404C24.9054 131.481 25.2028 131.546 25.5087 131.546H31.0115H75.2899H80.4088V131.486C80.053 131.446 79.7049 131.353 79.3696 131.208C79.0728 131.08 78.7887 130.9 78.5122 130.697C78.5097 130.695 78.5097 130.692 78.5045 130.69C78.4201 130.627 78.3408 130.556 78.2563 130.487C78.2512 130.482 78.2461 130.477 78.2409 130.472C78.0413 130.301 77.8442 130.116 77.6574 129.908C77.596 129.84 77.532 129.777 77.4731 129.705C77.23 129.409 77.0021 129.091 76.7948 128.735C76.7897 128.727 76.782 128.721 76.7769 128.713C76.7437 128.655 76.7232 128.584 76.6899 128.525C76.5056 128.193 76.329 127.847 76.178 127.473C76.1294 127.353 76.0961 127.221 76.05 127.097C76.0372 127.06 76.0219 127.022 76.0091 126.984C75.8939 126.653 75.7787 126.325 75.6892 125.969C75.6354 125.751 75.6073 125.511 75.5612 125.285C75.5484 125.213 75.5356 125.14 75.5228 125.067C75.5177 125.035 75.5126 125.002 75.5074 124.97C75.4998 124.937 75.4946 124.905 75.4895 124.872C75.4639 124.71 75.423 124.557 75.4025 124.391C75.3999 124.381 75.3948 124.371 75.3948 124.361C75.3257 123.806 75.2899 123.235 75.2899 122.647V121.444V109.899C75.2899 105.055 72.8942 101.135 69.9153 101.023C69.8718 101.021 69.8311 101 69.7873 101Z" fill="#0722AA"/>
<rect x="50" y="58" width="16" height="16" rx="8" fill="white"/>
<path fill-rule="evenodd" clip-rule="evenodd" d="M62.0419 63.7664C62.2937 64.035 62.2801 64.4569 62.0115 64.7087L57.2708 69.1531C57.0208 69.3875 56.6337 69.3942 56.3758 69.1685L54.0054 67.0944C53.7284 66.852 53.7003 66.4308 53.9427 66.1537C54.1852 65.8766 54.6064 65.8485 54.8834 66.091L56.7994 67.7674L61.0996 63.736C61.3682 63.4842 61.7901 63.4978 62.0419 63.7664Z" fill="#0A33FF"/>
</g>
<path d="M14.519 101C14.3815 101 14.2538 101.052 14.1189 101.068C11.2592 101.406 9 105.218 9 109.93C9 110.318 9.04249 110.689 9.07192 111.064L14.1189 111.102H19.9737H20.0057H31.0113H64.3562C64.3227 110.704 64.2843 110.312 64.2843 109.899C64.2843 104.985 66.748 101 69.7871 101H31.0113H20.0057H14.519Z" fill="#0A33FF"/>
</g>
<defs>
<filter id="filter0_f_9653_66683" x="26.1373" y="37.2941" width="75.7647" height="19.843" filterUnits="userSpaceOnUse" color-interpolation-filters="sRGB">
<feFlood flood-opacity="0" result="BackgroundImageFix"/>
<feBlend mode="normal" in="SourceGraphic" in2="BackgroundImageFix" result="shape"/>
<feGaussianBlur stdDeviation="3.60784" result="effect1_foregroundBlur_9653_66683"/>
</filter>
<filter id="filter1_f_9653_66683" x="31" y="44" width="67" height="8" filterUnits="userSpaceOnUse" color-interpolation-filters="sRGB">
<feFlood flood-opacity="0" result="BackgroundImageFix"/>
<feBlend mode="normal" in="SourceGraphic" in2="BackgroundImageFix" result="shape"/>
<feGaussianBlur stdDeviation="1" result="effect1_foregroundBlur_9653_66683"/>
</filter>
<clipPath id="clip0_9653_66683">
<rect width="128" height="128" fill="white"/>
</clipPath>
</defs>
</svg>
